<svg width="22" height="9" viewBox="0 0 22 9" fill="none" xmlns="http://www.w3.org/2000/svg">
<path d="M1.71116 6.21343C2.01681 6.20148 2.32245 6.18654 2.62809 6.17757C2.72268 6.17558 2.81825 6.18455 2.91284 6.19749C3.04525 6.21542 3.17667 6.2423 3.30908 6.26222C3.66849 6.31698 3.66848 6.31699 3.98309 6.12679L9.50363 2.78092C9.52056 2.76997 9.53847 2.762 9.55241 2.75005C9.6898 2.63055 9.83516 2.62359 10.0044 2.68234C10.1567 2.73611 10.319 2.76001 10.4793 2.78889C10.5321 2.79884 10.5918 2.78789 10.6456 2.77495C10.6696 2.77033 10.691 2.75677 10.7054 2.73699C10.7198 2.71721 10.7262 2.6927 10.7232 2.6684C10.7192 2.63554 10.6963 2.58874 10.6695 2.57579C10.5918 2.53994 10.5082 2.51803 10.4265 2.49214C10.3449 2.46725 10.2623 2.44634 10.1806 2.41945C10.1747 2.41846 10.1707 2.3836 10.1776 2.37962C10.2404 2.3358 10.3041 2.29398 10.3698 2.25415L11.2768 1.70347C11.3266 1.6736 11.3793 1.6487 11.4211 1.60987C11.4332 1.59665 11.4425 1.58106 11.4483 1.5641C11.4542 1.54714 11.4564 1.52916 11.455 1.51129C11.443 1.41669 11.4231 1.32507 11.3485 1.25238C11.3147 1.2182 11.2892 1.17671 11.274 1.13113C11.2589 1.08555 11.2543 1.03709 11.2608 0.989487C11.2698 0.893891 11.3315 0.824189 11.4231 0.818214C11.4888 0.814231 11.5565 0.818209 11.6232 0.826176C11.9737 0.869991 12.3241 0.915798 12.6746 0.963596C13.035 1.0104 13.3944 1.0592 13.7548 1.10699C14.1431 1.15778 14.5313 1.21056 14.9206 1.26035C15.28 1.30715 15.6404 1.35096 16.0008 1.39777C16.3523 1.44258 16.7027 1.48938 17.0532 1.53519L18.1324 1.67957L19.2982 1.83392C19.6487 1.87973 20.0001 1.92354 20.3506 1.96835L21.4029 2.10079C21.4507 2.10677 21.4975 2.11773 21.5433 2.13067C21.5702 2.13665 21.595 2.15058 21.6219 2.16253C21.609 2.18544 21.602 2.21432 21.5841 2.23224C20.6876 3.10877 19.7906 3.98474 18.893 4.86014L17.4126 6.30205C17.3787 6.33491 17.3429 6.36777 17.31 6.40163C17.2875 6.42683 17.2586 6.44536 17.2263 6.4552C17.1939 6.46503 17.1596 6.46579 17.1268 6.45739C16.9964 6.42951 16.866 6.39764 16.7346 6.37374C16.6793 6.36445 16.6226 6.36683 16.5683 6.38072C16.5384 6.38869 16.5076 6.42653 16.4946 6.45839C16.4747 6.50619 16.4946 6.56394 16.5385 6.58187C16.643 6.62568 16.7535 6.65655 16.862 6.68941C16.9347 6.71132 16.9466 6.75315 16.8899 6.8109C16.3909 7.29934 15.8918 7.78761 15.3925 8.27571C15.3577 8.30957 15.3199 8.33845 15.285 8.37131C15.2468 8.4075 15.2004 8.43391 15.1498 8.4483C15.0992 8.46269 15.0458 8.46463 14.9943 8.45396C14.5214 8.38426 14.0485 8.31654 13.5756 8.25181C13.0917 8.1851 12.6089 8.12236 12.126 8.05763C11.7756 8.01083 11.4251 7.96105 11.0747 7.91325L10.0522 7.77384C9.54046 7.70413 9.02973 7.63343 8.51799 7.56472C8.02518 7.49701 7.53236 7.43427 7.03955 7.36755L6.04495 7.23013L4.59638 7.02998C4.21805 6.9772 3.83973 6.92443 3.46041 6.87364L1.98296 6.67846C1.52797 6.61871 1.07299 6.55697 0.619 6.49523C0.580831 6.49113 0.543901 6.47927 0.51048 6.46038C0.496541 6.45142 0.488576 6.40064 0.497536 6.39267C0.547316 6.35085 0.599089 6.30305 0.657829 6.28114C0.801194 6.22438 0.953515 6.20347 1.10783 6.20347H1.71116V6.21343ZM15.5239 3.8056C15.5238 3.8136 15.5231 3.82157 15.522 3.82949C15.3895 3.81754 15.2571 3.8036 15.1247 3.79365C15.059 3.78966 15.0072 3.8265 14.9933 3.88028C14.986 3.90799 14.9876 3.93728 14.9977 3.96406C15.0079 3.99084 15.0262 4.01378 15.0501 4.02965C15.0829 4.04956 15.1168 4.07147 15.1526 4.07844C15.2173 4.09138 15.284 4.09836 15.3507 4.10035C15.6165 4.10433 15.8844 4.0884 16.1482 4.14615C16.184 4.15512 16.2288 4.1581 16.2597 4.14317C16.3008 4.12353 16.3343 4.09101 16.3553 4.05056C16.3662 4.02566 16.3443 3.97687 16.3244 3.94899C16.3029 3.9231 16.2762 3.90207 16.246 3.88731C16.2158 3.87254 16.1828 3.86437 16.1492 3.86335L15.5239 3.8056ZM13.482 4.54746C13.5517 4.54746 13.6383 4.54945 13.7239 4.54746C13.7619 4.54582 13.7992 4.53774 13.8344 4.52356C13.8822 4.50464 13.9161 4.46183 13.9081 4.41303C13.8961 4.36867 13.8728 4.32818 13.8404 4.29552C13.8245 4.2776 13.7876 4.27262 13.7608 4.27162C13.5985 4.26819 13.4362 4.2662 13.2739 4.26565C13.24 4.26383 13.2065 4.27329 13.1786 4.29258C13.1507 4.31186 13.1299 4.33987 13.1196 4.3722C13.0997 4.42498 13.0638 4.44191 13.0111 4.44091C12.9056 4.43693 12.801 4.43195 12.6965 4.43394C12.6367 4.43394 12.589 4.48373 12.581 4.54149C12.57 4.61119 12.6089 4.68488 12.6766 4.69583C12.7692 4.71077 12.8647 4.71774 12.9603 4.71874C13.0519 4.71874 13.1276 4.68289 13.1574 4.5853C13.1704 4.54547 13.1893 4.52356 13.2381 4.52954C13.3127 4.53949 13.3894 4.54148 13.482 4.54746ZM14.5005 2.06893V2.0769C14.5383 2.07889 14.5761 2.08287 14.615 2.08287C14.6807 2.08287 14.7474 2.08486 14.8141 2.07889C14.8669 2.0749 14.9067 2.03407 14.9097 1.98827C14.9101 1.96554 14.906 1.94296 14.8974 1.9219C14.8888 1.90085 14.8761 1.88175 14.8599 1.86578C14.8155 1.83077 14.7619 1.80934 14.7056 1.80405C14.5443 1.7911 14.382 1.78812 14.2207 1.78414C14.1929 1.78314 14.158 1.78413 14.1381 1.79907C14.1032 1.82596 14.0584 1.8638 14.0545 1.90064C14.0495 1.93848 14.0794 1.99524 14.1122 2.01815C14.157 2.04802 14.2167 2.06096 14.2725 2.06793C14.3472 2.0749 14.4248 2.06893 14.5005 2.06893ZM18.0826 2.88448C18.0119 2.88448 17.9831 2.88249 17.9552 2.88448C17.8944 2.88747 17.8377 2.9283 17.8257 2.97709C17.8138 3.02489 17.8467 3.0946 17.8954 3.12148C17.9203 3.13542 17.9462 3.15335 17.9731 3.15634C18.1423 3.17825 18.3116 3.20314 18.4808 3.21409C18.5326 3.21708 18.5884 3.18422 18.6372 3.15833C18.682 3.13443 18.6849 3.03883 18.6451 3.00498C18.618 2.97916 18.5848 2.96066 18.5485 2.9512C18.3803 2.92432 18.211 2.90141 18.0826 2.88448ZM5.48742 6.20048C5.42172 6.20845 5.38388 6.21044 5.34705 6.2184C5.31915 6.22313 5.29335 6.23623 5.27307 6.25598C5.2528 6.27572 5.23902 6.30117 5.23355 6.32894C5.21961 6.38868 5.23156 6.44544 5.27736 6.48428C5.30158 6.5066 5.33061 6.52305 5.36219 6.53238C5.39378 6.5417 5.42709 6.54364 5.45955 6.53805C5.55114 6.52311 5.64572 6.52212 5.73831 6.51515C5.7861 6.51117 5.83289 6.51017 5.87968 6.50221C5.93842 6.49225 5.98422 6.43947 5.98323 6.38669C5.98223 6.33292 5.95336 6.29409 5.90457 6.28313C5.75723 6.25027 5.60889 6.22438 5.48742 6.20148V6.20048ZM13.9828 3.29973C14.0485 3.29176 14.1152 3.29077 14.1789 3.27483C14.2025 3.26935 14.2232 3.25532 14.237 3.23545C14.2507 3.21558 14.2567 3.19129 14.2536 3.16729C14.2486 3.13344 14.2317 3.08862 14.2058 3.0717C14.1571 3.04224 14.1035 3.02199 14.0475 3.01194C13.936 2.99004 13.8225 2.9771 13.709 2.96216C13.6809 2.95898 13.6525 2.95898 13.6244 2.96216C13.5706 2.96813 13.5188 3.0219 13.5119 3.07667C13.5087 3.10041 13.5123 3.12454 13.5221 3.14636C13.532 3.16818 13.5477 3.18681 13.5676 3.20015C13.5975 3.22106 13.6353 3.236 13.6712 3.24297C13.7737 3.26488 13.8772 3.28081 13.9828 3.29973ZM11.8881 6.58087C11.8114 6.56494 11.7487 6.5978 11.7278 6.65755C11.716 6.69401 11.7188 6.73364 11.7357 6.76804C11.7526 6.80243 11.7823 6.82887 11.8184 6.84177C11.9816 6.89853 12.1469 6.92641 12.3172 6.87164C12.3779 6.85173 12.4147 6.80194 12.4127 6.74617C12.4109 6.71783 12.3996 6.69093 12.3807 6.6698C12.3617 6.64866 12.3362 6.63453 12.3082 6.62967C12.1688 6.61075 12.0284 6.5968 11.8881 6.58087ZM11.5187 7.13055C11.6481 7.13653 11.7208 7.12657 11.7815 7.0718C11.8233 7.03496 11.8253 6.95728 11.7805 6.92243C11.7656 6.91247 11.7507 6.89455 11.7337 6.89256C11.5784 6.86069 11.4221 6.82883 11.2658 6.80493C11.217 6.79796 11.1782 6.8348 11.1573 6.8816C11.1344 6.93338 11.1513 7.00408 11.1941 7.03396C11.216 7.04989 11.2399 7.06881 11.2668 7.07479C11.3664 7.09968 11.4679 7.1196 11.5187 7.13055ZM11.456 4.07247C11.4022 4.07446 11.3534 4.07247 11.3076 4.08044C11.2588 4.09039 11.214 4.12326 11.216 4.17603C11.218 4.21885 11.233 4.27661 11.2638 4.30051C11.3773 4.39013 11.5456 4.38515 11.6621 4.29254C11.688 4.27262 11.7108 4.22084 11.7029 4.19296C11.6888 4.14994 11.6584 4.11417 11.6183 4.09338C11.5675 4.07247 11.5068 4.07745 11.456 4.07247ZM6.58755 5.87585C6.55271 5.88182 6.52483 5.88382 6.49795 5.89179C6.45115 5.90374 6.39938 5.97344 6.40038 6.01925C6.40038 6.06406 6.45115 6.13874 6.49894 6.14472C6.56359 6.15389 6.62911 6.15523 6.69408 6.1487C6.76974 6.13874 6.83147 6.07302 6.8255 6.02323C6.81952 5.97045 6.7568 5.90573 6.69308 5.89079C6.65624 5.88183 6.61842 5.88083 6.58755 5.87585ZM14.9166 4.86512C14.9624 4.85615 15.0232 4.85715 15.069 4.83325C15.1028 4.81433 15.1307 4.76355 15.1377 4.72372C15.1426 4.69683 15.1148 4.64804 15.0889 4.6341C14.9873 4.57734 14.8778 4.55842 14.7663 4.6092C14.7175 4.63111 14.7006 4.67293 14.6996 4.72173C14.6986 4.77251 14.7225 4.81433 14.7703 4.83126C14.8131 4.84819 14.8609 4.85317 14.9166 4.86512ZM9.6898 5.74441C9.59423 5.7464 9.54046 5.78125 9.52453 5.83203C9.50661 5.89278 9.54245 5.96348 9.60816 5.99535C9.69976 6.04115 9.79036 6.0521 9.87698 5.98539C9.9178 5.95551 9.94368 5.9097 9.92576 5.86191C9.9148 5.82905 9.88494 5.79121 9.85507 5.78026C9.79334 5.75735 9.72564 5.75138 9.6898 5.74441ZM16.6669 5.53927C16.648 5.51238 16.631 5.45961 16.5962 5.44069C16.5195 5.39887 16.4319 5.40484 16.3493 5.43571C16.3005 5.45463 16.2667 5.53131 16.2856 5.57811C16.3125 5.64781 16.3672 5.67968 16.4379 5.68765C16.5315 5.6976 16.6211 5.65279 16.6529 5.58408C16.6569 5.57512 16.6589 5.56616 16.6669 5.53927ZM15.97 2.10577C15.961 1.99823 15.8963 1.95641 15.8266 1.92454C15.7629 1.89566 15.6942 1.88869 15.6384 1.93749C15.6016 1.97035 15.5817 2.01615 15.6046 2.06694C15.6594 2.18643 15.8057 2.24319 15.9152 2.18145C15.9431 2.16552 15.958 2.1237 15.97 2.10577ZM11.6929 2.55787C11.6312 2.56384 11.5735 2.63952 11.5814 2.70126C11.5944 2.79486 11.686 2.85062 11.7985 2.8337C11.8267 2.82908 11.8522 2.81427 11.8702 2.79205C11.8882 2.76983 11.8974 2.74177 11.896 2.71321C11.8881 2.62259 11.7915 2.54891 11.6929 2.55787Z" fill="black"/>
</svg>
