<svg width="46" height="26" viewBox="0 0 46 26" fill="none" xmlns="http://www.w3.org/2000/svg">
<path d="M4.72092 25.5568H5.52741C5.5971 25.5568 5.66673 25.5488 5.71651 25.5926C5.80612 25.6574 5.89575 25.6504 5.99531 25.6434C6.17451 25.6305 6.35365 25.6116 6.54281 25.6016C6.76184 25.5897 6.9809 25.5807 7.19993 25.5777C7.35922 25.5747 7.52848 25.5817 7.69773 25.5857C7.80724 25.5887 7.92667 25.6175 8.02623 25.5916C8.25521 25.5349 8.49423 25.5648 8.72321 25.5219C8.81281 25.505 8.9124 25.4941 9.00201 25.4841C9.19117 25.4632 9.3703 25.4333 9.54951 25.4283C10.1469 25.4114 10.7542 25.4014 11.3516 25.3935C11.491 25.3915 11.6303 25.4064 11.7697 25.4114C12.2177 25.4263 12.6558 25.4303 13.1038 25.3556C13.4921 25.2909 13.8803 25.2342 14.2786 25.2401C14.4777 25.2431 14.6768 25.2162 14.8659 25.1983C15.0053 25.1864 15.0751 25.0888 15.0551 24.9553C15.0551 24.9265 15.0352 24.8996 15.0252 24.8727C15.0053 24.8259 15.0253 24.787 15.0551 24.7512C15.085 24.7124 15.1248 24.6765 15.1547 24.6367C15.2144 24.569 15.2642 24.5032 15.314 24.4296C15.4733 24.1926 15.523 23.9476 15.3637 23.6877C15.3438 23.6419 15.3538 23.604 15.3936 23.5732C15.4708 23.505 15.5695 23.4663 15.6724 23.4636C15.7321 23.4636 15.7919 23.4537 15.8417 23.4198C15.9612 23.3372 16.0906 23.3651 16.22 23.384C16.2499 23.388 16.2697 23.4288 16.2498 23.4507C16.2299 23.4806 16.2001 23.5055 16.1802 23.5363C16.1702 23.5672 16.1503 23.603 16.1403 23.6379C16.1303 23.7166 16.2001 23.7833 16.2797 23.7634C16.2999 23.7569 16.3199 23.7496 16.3395 23.7415C16.4888 23.6807 16.6381 23.615 16.7875 23.5612C16.9069 23.5174 16.9865 23.4517 16.9965 23.3143C17.0065 23.2366 17.0463 23.2127 17.116 23.2336C17.2454 23.2655 17.365 23.2963 17.4745 23.3481C17.7234 23.4646 17.9821 23.5264 18.2609 23.5473C18.5795 23.5722 18.8882 23.6379 19.2068 23.7176C19.5055 23.7942 19.8041 23.86 20.1127 23.8998C20.2023 23.9117 20.2919 23.9386 20.3815 23.9625C20.4413 23.9785 20.4712 24.0093 20.4612 24.0512C20.4612 24.1199 20.4313 24.1746 20.3716 24.1866C20.3218 24.1995 20.2621 24.2045 20.2024 24.2095C20.1128 24.2155 20.0232 24.2224 19.9435 24.2214C19.899 24.2225 19.8548 24.2137 19.8141 24.1955C19.7344 24.1577 19.6448 24.1637 19.5552 24.1687C19.4557 24.1746 19.3959 24.2543 19.4158 24.3519C19.4158 24.3987 19.4456 24.4355 19.4855 24.4544C19.5266 24.473 19.5702 24.4855 19.6149 24.4913C19.8439 24.5222 20.0729 24.551 20.3019 24.5102C20.4612 24.4843 20.6105 24.4674 20.7599 24.4515C20.9191 24.4365 21.0486 24.4047 21.1083 24.2324C21.1182 24.1766 21.1879 24.1537 21.2278 24.1687C21.3472 24.2045 21.4469 24.2553 21.5564 24.3011V24.3379C21.5464 24.351 21.5324 24.3605 21.5165 24.3648C21.2676 24.4644 21.0187 24.57 20.7499 24.6277C20.6503 24.6496 20.5707 24.6805 20.5409 24.788C20.5209 24.8448 20.4712 24.8607 20.4214 24.8597C20.3616 24.8587 20.3018 24.8567 20.2421 24.8538C20.1768 24.8467 20.1108 24.8543 20.0488 24.876C19.9868 24.8977 19.9304 24.933 19.8837 24.9792C19.8337 25.0323 19.7704 25.071 19.7003 25.0913C19.6303 25.1116 19.5561 25.1128 19.4855 25.0947C19.356 25.0709 19.2168 25.0838 19.0873 25.0888C19.0225 25.0943 18.9588 25.1091 18.8981 25.1326C18.8384 25.1535 18.8085 25.2043 18.7986 25.265C18.7687 25.3766 18.8185 25.4512 18.938 25.4662C18.9977 25.4741 19.0574 25.4751 19.1171 25.4771C19.2167 25.4821 19.3163 25.4851 19.4158 25.4871C19.4855 25.4891 19.5353 25.508 19.5652 25.5628C19.6349 25.6564 19.7245 25.7161 19.8241 25.7609C19.9336 25.8067 20.0331 25.8197 20.1426 25.7838C20.3118 25.7311 20.4811 25.6942 20.6504 25.6474C20.72 25.6285 20.7797 25.6275 20.8494 25.6464C20.9039 25.6656 20.961 25.6763 21.0187 25.6783C21.2577 25.6773 21.4866 25.7181 21.7156 25.755C21.7813 25.7667 21.8481 25.7717 21.9148 25.7699C21.9588 25.7673 22 25.7477 22.0297 25.7151C22.0595 25.6826 22.0755 25.6397 22.0741 25.5956C22.0741 25.5249 22.0342 25.4652 21.9645 25.4473C21.9346 25.4383 21.8948 25.4363 21.855 25.4303C21.6957 25.4024 21.626 25.3228 21.6061 25.1545C21.5961 25.1186 21.5961 25.0818 21.5861 25.0469C21.5762 25.0051 21.5365 24.9553 21.5464 24.9265C21.5763 24.8757 21.636 24.8946 21.6858 24.8926C21.7356 24.8916 21.7952 24.8966 21.845 24.8926C21.9346 24.8846 21.9944 24.9175 22.0243 25.0131C22.0442 25.0828 22.1039 25.1127 22.1736 25.1127C22.2135 25.1137 22.2632 25.1137 22.3031 25.1117C22.4325 25.1067 22.552 25.1196 22.6714 25.1654C22.771 25.2023 22.8705 25.2093 22.97 25.1983C23.1293 25.1814 23.2986 25.1744 23.4579 25.1555C23.5873 25.1376 23.7367 25.1236 23.8661 25.0818C24.0851 25.0121 24.3042 24.9225 24.5232 24.8408C24.6427 24.796 24.7721 24.7502 24.8916 24.7074C25.0708 24.6466 25.25 24.6217 25.4292 24.6536C25.6084 24.6835 25.7776 24.6476 25.9568 24.6217C26.0663 24.6058 26.1659 24.5759 26.2755 24.558C26.3863 24.5473 26.4909 24.5017 26.5741 24.4276C26.6139 24.3897 26.6737 24.3818 26.7334 24.3628C26.7931 24.3419 26.823 24.2981 26.8429 24.2364C26.8628 24.1587 26.813 24.079 26.7334 24.077C26.5841 24.0751 26.4348 24.0701 26.2954 24.089C26.0465 24.1219 25.7976 24.093 25.5587 24.0502C25.5006 24.0418 25.4437 24.0264 25.3894 24.0044C25.2599 23.9536 25.1305 23.8978 25.0011 23.842C24.9911 23.8381 24.9811 23.8171 24.9811 23.8092C24.9911 23.7982 25.0011 23.7863 25.021 23.7843C25.0708 23.7783 25.1306 23.7723 25.1903 23.7713C25.4492 23.7634 25.7079 23.7584 25.9568 23.7484C26.1957 23.7395 26.4248 23.7285 26.6638 23.7136C26.7434 23.7086 26.813 23.7186 26.8529 23.8112C26.8728 23.843 26.9225 23.8689 26.9624 23.8729C27.0619 23.8839 27.1515 23.9187 27.2412 23.9456C27.3108 23.9665 27.3805 23.9725 27.4502 23.9824C27.5896 24.0004 27.729 24.0073 27.8584 24.0631C27.8982 24.079 27.9082 24.1268 27.8883 24.1537C27.8784 24.1587 27.8783 24.1647 27.8684 24.1697C27.8684 24.1756 27.8584 24.1816 27.8584 24.1846C27.7741 24.2375 27.7045 24.3107 27.6558 24.3975C27.6071 24.4843 27.5809 24.582 27.5796 24.6815C27.5796 24.7323 27.5398 24.7582 27.49 24.7661C27.2113 24.8149 26.9326 24.8617 26.6538 24.9115C26.4646 24.9434 26.2954 24.9912 26.146 25.1176C26.1162 25.1495 26.0564 25.1664 26.0066 25.1784C25.927 25.1983 25.8374 25.2093 25.7478 25.2252C25.698 25.2361 25.6382 25.2451 25.5785 25.263C25.5465 25.2719 25.5189 25.292 25.5006 25.3196C25.4823 25.3472 25.4746 25.3805 25.4789 25.4134C25.4889 25.4781 25.5387 25.5269 25.6183 25.5269C25.688 25.5269 25.7477 25.5209 25.8174 25.51C25.9966 25.4801 26.1759 25.4482 26.3551 25.4114C26.4174 25.3951 26.4833 25.3975 26.5443 25.4184C26.6837 25.4682 26.813 25.4612 26.9624 25.4363C27.1017 25.4114 27.2511 25.4005 27.3905 25.3855C27.4502 25.3786 27.51 25.3915 27.5399 25.4582C27.5498 25.5 27.5896 25.4951 27.6294 25.4871C27.8286 25.4443 28.0376 25.4373 28.2467 25.4383C28.3761 25.4393 28.5056 25.4363 28.635 25.4602C28.9536 25.519 29.1925 25.3925 29.4016 25.1804C29.4614 25.1177 29.521 25.0489 29.5708 24.9792C29.6704 24.8538 29.7898 24.792 29.9491 24.804C30.2777 24.8279 30.5366 24.6994 30.7656 24.4933C30.7956 24.472 30.8294 24.4564 30.8651 24.4475C30.9945 24.4216 31.114 24.3808 31.2434 24.329C31.3729 24.2742 31.5023 24.2453 31.6417 24.2404C31.8408 24.2344 32.0399 24.1985 32.2291 24.1418C32.4083 24.087 32.5974 24.0651 32.7865 24.0671C33.0056 24.0701 33.2146 24.0292 33.4138 23.9715C33.6228 23.9117 33.8419 23.857 34.0509 23.8002C34.2501 23.7454 34.4293 23.6538 34.5986 23.5294C34.7977 23.383 34.8375 23.1898 34.7976 22.9647C34.7578 22.8134 34.6882 22.676 34.5986 22.5525C34.4592 22.3802 34.3297 22.2059 34.1804 22.0377C33.8419 21.6214 33.5034 21.1952 33.1948 20.7531C33.0653 20.5679 32.9061 20.4026 32.7568 20.2293C32.6174 20.056 32.458 19.8887 32.3186 19.7125C32.0299 19.352 31.7512 18.9836 31.4624 18.6281C31.2633 18.3911 31.0543 18.168 30.8452 17.9439C30.5266 17.6034 30.1981 17.2668 29.8695 16.9282C29.77 16.8217 29.6903 16.7032 29.6107 16.5797C29.4613 16.3547 29.2921 16.1386 29.1328 15.9195C29.0233 15.7651 28.9038 15.6158 28.7943 15.4594C28.6363 15.2236 28.4451 15.0116 28.2268 14.8301C27.9878 14.6359 27.739 14.4447 27.5 14.2545C27.2013 14.0185 26.9326 13.7566 26.6638 13.4778C26.4951 13.2957 26.345 13.0972 26.2157 12.8853C26.0265 12.5826 25.8174 12.2918 25.5984 12.009C25.4391 11.8118 25.2998 11.6107 25.1504 11.4115C24.5929 10.6448 23.9457 9.95967 23.2189 9.35024C23.0397 9.20087 22.8606 9.04155 22.6914 8.88621C22.542 8.74978 22.3826 8.61336 22.2333 8.47295C22.1537 8.39329 22.0641 8.30864 21.9944 8.21703C21.855 8.03679 21.7156 7.86551 21.5265 7.73307C21.407 7.65241 21.3273 7.54387 21.2377 7.43135C21.073 7.19507 20.8405 7.01448 20.5707 6.91354C20.3716 6.83985 20.1526 6.79404 19.9336 6.76217C19.6239 6.71434 19.311 6.68971 18.9976 6.68849C18.8284 6.68849 18.709 6.77612 18.5696 6.84383C18.47 6.97826 18.3704 7.11468 18.3604 7.29193C18.3556 7.3022 18.3532 7.31343 18.3532 7.3248C18.3532 7.33617 18.3556 7.34739 18.3604 7.35766C18.3903 7.58968 18.261 7.7271 18.0818 7.83564C17.9723 7.89937 17.8627 7.95513 17.7532 8.01289C17.7133 8.0328 17.6735 8.05471 17.6337 8.06766C17.5242 8.10251 17.4147 7.99796 17.4346 7.87846C17.4524 7.81495 17.491 7.75921 17.5441 7.72013C17.6337 7.66536 17.7134 7.60362 17.8129 7.56478C17.9424 7.50902 18.0419 7.41541 18.1116 7.29293C18.1315 7.25509 18.1614 7.22024 18.1813 7.1824C18.2112 7.13559 18.2012 7.10573 18.1514 7.07784C17.9963 6.99623 17.8276 6.94359 17.6536 6.9225C17.5278 6.91167 17.4015 6.90834 17.2753 6.91254C17.0961 6.91652 17.0066 6.99619 16.9767 7.17145V7.19136C16.9866 7.36363 16.897 7.48015 16.7775 7.5867C16.668 7.6793 16.5783 7.78486 16.4887 7.8924C16.3593 8.05173 16.1802 8.15529 15.9811 8.22101C15.3539 8.42813 14.8062 8.76074 14.2885 9.16304C14.189 9.23872 14.0993 9.32834 14.0097 9.41398C13.9415 9.47173 13.8986 9.55396 13.8903 9.64301C13.8903 9.74956 13.8305 9.83819 13.7808 9.92482C13.5717 10.2445 13.3726 10.5651 13.1635 10.8818C13.0142 11.0949 12.8649 11.304 12.7155 11.5091C12.606 11.6575 12.4865 11.7959 12.3769 11.9373C12.357 11.9672 12.367 11.9901 12.3969 12.003C12.4566 12.0259 12.5064 12.018 12.5662 11.9921C12.6956 11.9323 12.825 11.8796 12.9445 11.8208C13.0839 11.7591 13.2233 11.7173 13.3627 11.6934C13.4153 11.6845 13.4686 11.6815 13.5219 11.6844C13.6015 11.6914 13.6613 11.7491 13.6812 11.8338C13.6925 11.8733 13.6897 11.9156 13.6733 11.9533C13.657 11.9911 13.6282 12.022 13.5917 12.0409C13.5484 12.0647 13.5012 12.0806 13.4523 12.0877C13.1237 12.1434 12.8449 12.2948 12.5662 12.4581C12.5562 12.4651 12.5363 12.4741 12.5263 12.483C12.3073 12.6722 12.0386 12.7598 11.7498 12.7937C11.5597 12.8164 11.3704 12.8456 11.1823 12.8813C11.0429 12.9082 10.8936 12.9361 10.7543 12.9909C10.2863 13.185 9.81828 13.3991 9.39018 13.6879C9.35035 13.7158 9.31054 13.7447 9.27071 13.7775C9.2398 13.7993 9.21291 13.8263 9.19111 13.8572C9.14943 13.9817 9.06472 14.0873 8.95218 14.155C8.92231 14.1729 8.90245 14.2237 8.88254 14.2615C8.7332 14.5274 8.55398 14.7644 8.36481 14.9964C8.21548 15.1707 8.08601 15.3569 7.95659 15.5441C7.81721 15.7522 7.71759 15.9792 7.6479 16.2212C7.57821 16.4742 7.49859 16.7261 7.4289 16.98C7.37912 17.1722 7.29949 17.3524 7.19993 17.5197C7.0705 17.7179 6.94105 17.9141 6.80167 18.1023C6.61251 18.3632 6.46324 18.649 6.37364 18.9597C6.30394 19.1688 6.22431 19.3739 6.1347 19.5751C6.08492 19.6936 6.01516 19.8061 5.93551 19.9116C5.77622 20.1247 5.59698 20.3179 5.40782 20.4992C5.28835 20.6137 5.17886 20.7411 5.05939 20.8656C4.93992 21.001 4.82046 21.1385 4.70099 21.2769C4.6313 21.3605 4.55169 21.4432 4.49196 21.5348C4.40235 21.6772 4.29276 21.8017 4.16333 21.9102C4.00404 22.0416 3.86473 22.19 3.74526 22.3613C3.69548 22.439 3.6457 22.5236 3.61583 22.6122C3.57601 22.7337 3.51623 22.8413 3.44654 22.9428C3.39185 23.0116 3.35126 23.0904 3.32707 23.1749C3.31763 23.2105 3.30019 23.2434 3.27603 23.2712C3.25187 23.299 3.22161 23.3209 3.18768 23.3352C3.12794 23.368 3.0583 23.3989 2.98861 23.4278C2.85918 23.4855 2.74962 23.5592 2.68988 23.7026C2.66997 23.7713 2.62018 23.8052 2.55048 23.8191C2.48079 23.8341 2.40117 23.85 2.33148 23.8699C2.21201 23.9028 2.12241 23.9655 2.08259 24.09C2.05272 24.1796 1.99306 24.2175 1.91341 24.2423C1.66452 24.318 1.41562 24.3847 1.16672 24.4236C1.06716 24.4395 0.967545 24.4545 0.858031 24.4744C0.73856 24.4993 0.619123 24.5421 0.519564 24.6068C0.420268 24.6591 0.342702 24.7448 0.300564 24.8488C0.250784 24.9673 0.280618 25.0669 0.390133 25.1336C0.427518 25.157 0.467638 25.1757 0.509599 25.1893C0.678849 25.2342 0.848109 25.2969 1.01736 25.3158C1.39568 25.3556 1.77403 25.4034 2.16231 25.3965C2.21209 25.3955 2.27175 25.3955 2.33148 25.3895C2.36459 25.3872 2.39685 25.3778 2.42604 25.362C2.45522 25.3462 2.48072 25.3243 2.50078 25.2979C2.52176 25.2751 2.53749 25.2479 2.54696 25.2184C2.55643 25.1889 2.55938 25.1576 2.55559 25.1269C2.5518 25.0961 2.54143 25.0665 2.52508 25.0402C2.50874 25.0138 2.4868 24.9913 2.46091 24.9743C2.40118 24.9364 2.34152 24.9085 2.29174 24.8777C2.24196 24.8528 2.19217 24.8309 2.15235 24.804C2.14239 24.799 2.14238 24.7771 2.14238 24.7661C2.15234 24.7552 2.1622 24.7432 2.17216 24.7412C2.20202 24.7373 2.23198 24.7343 2.26185 24.7373C2.75964 24.793 3.25743 24.7412 3.74526 24.6576C3.90456 24.6307 4.06383 24.5978 4.22313 24.564C4.36251 24.5321 4.50187 24.4734 4.57156 24.329C4.60143 24.2712 4.66119 24.2523 4.72092 24.2493C4.78066 24.2463 4.8503 24.2433 4.91999 24.2423C5.2784 24.2384 5.64687 24.2364 6.01524 24.2334H6.10481C6.25414 24.2374 6.39354 24.2015 6.4931 24.0711C6.52297 24.0283 6.56278 24.0282 6.6026 24.0551C6.63247 24.0701 6.65233 24.086 6.67224 24.1049C6.73197 24.1517 6.76189 24.2075 6.72207 24.2792C6.6922 24.3409 6.68224 24.4037 6.72207 24.4664C6.74198 24.4953 6.7719 24.5291 6.7719 24.556C6.76194 24.6078 6.71205 24.6078 6.66227 24.6128C6.39346 24.6526 6.11474 24.6865 5.83598 24.6895C5.41783 24.6934 5.00965 24.7562 4.60146 24.8657C4.37247 24.9284 4.14342 25.0111 3.91444 25.0878C3.85828 25.1064 3.80484 25.1322 3.75523 25.1645C3.72017 25.1882 3.6897 25.2183 3.66554 25.2531C3.56598 25.3915 3.62572 25.5359 3.79497 25.5528C3.86466 25.5598 3.9444 25.5568 4.01409 25.5568H4.72092V25.5568ZM22.9004 19.4795C23.0398 19.4904 23.1891 19.4884 23.3384 19.5153C23.6271 19.5701 23.9258 19.6029 24.2245 19.6298C24.2842 19.6348 24.344 19.6418 24.3938 19.6567C24.5033 19.6856 24.5531 19.7722 24.5431 19.8718C24.5232 19.9764 24.4535 20.0361 24.344 20.0371C24.3207 20.0371 24.2975 20.0361 24.2743 20.0341C23.9955 20.0013 23.7069 19.9803 23.4281 19.9335C23.0299 19.8668 22.6315 19.8678 22.2333 19.9714C21.9147 20.055 21.5862 20.0799 21.2576 20.0769C21.2075 20.0766 21.1574 20.0712 21.1083 20.061C20.9988 20.0361 20.959 19.9415 20.9888 19.8399C21.0187 19.7483 21.0984 19.6975 21.188 19.6826C21.2577 19.6697 21.3274 19.6707 21.407 19.6687C21.6758 19.6597 21.9545 19.6388 22.2233 19.5681C22.4424 19.5093 22.6714 19.4785 22.9004 19.4795V19.4795ZM15.6724 13.196C15.6824 13.1671 15.6924 13.1233 15.7123 13.0845C15.7521 12.9998 15.8019 12.9152 15.8517 12.8355C16.001 12.5965 16.1603 12.3575 16.3196 12.1245C16.7178 11.5679 17.0961 11.0053 17.4346 10.4157C17.4564 10.3769 17.4831 10.341 17.5142 10.3092C17.5939 10.2176 17.7333 10.2534 17.7631 10.3759C17.783 10.4277 17.783 10.4775 17.7631 10.5253C17.7233 10.592 17.6935 10.6577 17.6636 10.7205C17.4246 11.1218 17.1757 11.5211 16.9069 11.9055C16.668 12.254 16.439 12.6075 16.2001 12.958C16.1404 13.0426 16.0806 13.1283 16.0208 13.207C15.981 13.2567 15.9213 13.2966 15.8715 13.3344C15.8317 13.3613 15.7918 13.3613 15.742 13.3384C15.6923 13.3105 15.6824 13.2647 15.6724 13.196V13.196ZM12.5861 24.7751V24.793C12.5164 24.793 12.4467 24.795 12.3671 24.792C12.3571 24.791 12.3173 24.7781 12.3173 24.7651C12.3073 24.7412 12.3173 24.7034 12.3272 24.6875C12.4069 24.6068 12.4865 24.5351 12.5562 24.4535C12.6757 24.317 12.8349 24.2513 13.0141 24.2035C13.1635 24.1597 13.3229 24.1448 13.4822 24.1458C13.5419 24.1468 13.6016 24.1537 13.6513 24.1935C13.721 24.2523 13.8106 24.2662 13.8903 24.2792C13.9799 24.2911 14.0695 24.3041 14.1491 24.322C14.2387 24.3409 14.2586 24.3708 14.2686 24.4554C14.2785 24.5421 14.2587 24.5799 14.1691 24.5949C14.0695 24.6148 13.96 24.6317 13.8505 24.6496C13.7012 24.6735 13.5518 24.7054 13.3925 24.7193C13.1237 24.7442 12.8549 24.7572 12.5861 24.7751V24.7751ZM14.4777 14.133C14.6271 14.139 14.6967 14.2645 14.6469 14.379C14.627 14.4517 14.5673 14.4985 14.5075 14.5443C14.2288 14.7704 13.9201 14.9526 13.6214 15.1468C13.5666 15.181 13.5059 15.2046 13.4423 15.2165C13.3328 15.2364 13.2531 15.1428 13.283 15.0402C13.3029 14.9924 13.3229 14.9426 13.3527 14.9068C13.4125 14.843 13.4821 14.7833 13.5518 14.7335C13.8106 14.5493 14.0795 14.369 14.3483 14.1908C14.3981 14.1589 14.4479 14.144 14.4777 14.133V14.133ZM6.17444 23.8659C6.14458 23.862 6.11475 23.8629 6.09484 23.856C6.06497 23.844 6.03505 23.8211 6.03505 23.7783C6.03505 23.7454 6.07495 23.7206 6.11477 23.7255L6.18441 23.7385C6.22423 23.7534 6.27408 23.8082 6.25417 23.8261C6.23426 23.847 6.19436 23.857 6.17444 23.8659ZM7.60816 8.53767L10.8638 8.46598C11.9888 8.44009 13.1137 8.41021 14.2487 8.38631C14.3788 8.38452 14.506 8.34772 14.617 8.27977C15.1945 7.92327 15.7719 7.56977 16.3593 7.21526C16.3792 7.20033 16.4092 7.18539 16.4291 7.16547C16.439 7.15252 16.439 7.12365 16.4291 7.10971C16.4191 7.08481 16.3991 7.06589 16.3792 7.04498C16.1303 6.80399 15.8815 6.56401 15.6425 6.32203C15.2343 5.91973 14.7963 5.55029 14.3583 5.1918C13.97 4.87912 13.5817 4.56645 13.2034 4.24481C12.7753 3.87935 12.3073 3.56767 11.8294 3.26594C11.7398 3.21018 11.6502 3.1564 11.5706 3.10362C11.3814 2.99409 11.2122 2.87161 11.0628 2.72224C11.0021 2.65851 10.9212 2.61771 10.8339 2.60673C10.7821 2.60335 10.733 2.58265 10.6945 2.54797C10.6148 2.48125 10.5352 2.47627 10.4456 2.47827C10.0672 2.48922 9.6889 2.50117 9.31057 2.50913C9.03181 2.51511 8.76305 2.51611 8.49425 2.52108L5.84594 2.57287L3.97423 2.61071C3.21758 2.62664 2.45094 2.64058 1.69429 2.65751C1.62065 2.66027 1.54741 2.66926 1.47529 2.6844C1.43177 2.69017 1.39056 2.70735 1.35583 2.73419C1.26622 2.83277 1.14681 2.88356 1.04726 2.97517C0.907873 3.11458 0.818222 3.29084 0.74853 3.48103C0.688795 3.68418 0.658932 3.89528 0.629064 4.1044C0.589241 4.40812 0.539466 4.71184 0.509599 5.01754C0.479731 5.28641 0.469726 5.55726 0.459771 5.82712C0.439859 6.00935 0.429985 6.19158 0.42003 6.37481C0.410074 6.50526 0.410054 6.6377 0.400098 6.76915C0.400098 7.15751 0.419937 7.54387 0.449805 7.93024C0.469717 8.08956 0.509628 8.24691 0.539495 8.40524C0.549451 8.45901 0.579285 8.49585 0.629064 8.51975C0.668888 8.54066 0.718672 8.55958 0.758496 8.59344C0.848099 8.67908 0.95757 8.70198 1.087 8.698C1.32594 8.69202 1.56485 8.69003 1.80379 8.68505L3.566 8.64223L7.16007 8.55461C7.33927 8.54963 7.5086 8.54066 7.60816 8.53767V8.53767ZM36.072 1.96941L34.738 1.99232C33.1782 2.02117 31.6184 2.05138 30.0586 2.08294L28.7644 2.1158C28.7346 2.1158 28.7146 2.12078 28.6847 2.12576C28.6748 2.12576 28.6649 2.13073 28.6649 2.13571C28.6649 2.14169 28.6649 2.15264 28.6749 2.15663C28.6948 2.17953 28.7246 2.19945 28.7545 2.22235C28.7843 2.24625 28.8241 2.26815 28.8341 2.29902C28.854 2.39163 28.9337 2.44043 28.9934 2.4962C29.4514 2.87061 29.8994 3.24304 30.3474 3.62144C30.5067 3.75786 30.6659 3.90325 30.8153 4.04565C31.1538 4.34439 31.5023 4.61823 31.8607 4.89008C32.249 5.18783 32.6373 5.48657 33.0256 5.78829C33.1948 5.92372 33.3641 6.06711 33.5234 6.2105C33.8121 6.45746 34.1008 6.71139 34.3895 6.95337C34.6484 7.16746 34.9171 7.37459 35.1859 7.57773C35.4547 7.77689 35.7435 7.87248 36.082 7.86053C36.9979 7.82767 37.9139 7.80776 38.8298 7.78486C39.2181 7.7749 39.6064 7.77191 39.9847 7.76394L41.9161 7.71814C42.6827 7.69822 43.4394 7.67632 44.206 7.6574C44.4151 7.65142 44.6242 7.65042 44.8333 7.64744C44.893 7.64744 44.9427 7.64744 44.9925 7.64345C45.1318 7.6335 45.2414 7.56279 45.2912 7.42637C45.3211 7.33476 45.3708 7.25609 45.4206 7.17543C45.57 6.94142 45.6496 6.68351 45.6895 6.41464C45.7691 6.00039 45.7592 5.58515 45.6994 5.1699C45.6198 4.4853 45.4103 3.82218 45.0822 3.21615C44.9513 2.97006 44.7943 2.73871 44.6141 2.52607C44.4872 2.37436 44.3437 2.2374 44.1861 2.11779C43.9173 1.91365 43.6186 1.8081 43.2701 1.81606C42.3741 1.83598 41.4881 1.85092 40.592 1.86884L38.6208 1.90867L36.2513 1.95648H36.072V1.96941ZM34.0709 6.4246L34.0808 6.43058L34.0709 6.42062L34.0609 6.41663C34.0609 6.41962 34.0609 6.42162 34.0709 6.4246V6.4246ZM34.2402 6.55505C34.2601 6.56999 34.27 6.58492 34.2899 6.59986L34.2998 6.60683L34.2899 6.59588C34.2799 6.58094 34.2601 6.566 34.2501 6.55206L34.2302 6.5421L34.2402 6.55505V6.55505ZM34.0112 0.402036L27.6294 0.421956C27.2412 0.423948 26.8528 0.431913 26.4646 0.438883C26.4247 0.438883 26.3949 0.444858 26.3551 0.452824C26.3451 0.45382 26.3451 0.477716 26.3451 0.486678L26.375 0.540452C26.4248 0.590241 26.4746 0.635054 26.5144 0.689822C26.6139 0.853133 26.7733 0.960679 26.9326 1.06225C27.3009 1.29726 27.6793 1.53226 28.0377 1.77225C28.1472 1.83996 28.2467 1.86586 28.3761 1.86386C29.1726 1.85191 29.9691 1.84395 30.7656 1.83399L34.1604 1.79018L37.655 1.74536C38.7501 1.73142 39.8453 1.71748 40.9405 1.70155C41.4781 1.69458 42.0257 1.68462 42.5633 1.67367C42.6429 1.67267 42.7226 1.6667 42.8022 1.65773C42.852 1.65276 42.8818 1.62388 42.8918 1.57508C42.9138 1.50109 42.9181 1.42293 42.9043 1.34697C42.8905 1.27102 42.8589 1.1994 42.8122 1.13793C42.7126 0.984574 42.5932 0.849148 42.4438 0.733636C42.2 0.499804 41.8756 0.368618 41.5378 0.367188C40.1838 0.371171 38.8298 0.37216 37.4758 0.37913C36.321 0.385105 35.1661 0.39606 34.0112 0.405022V0.402036V0.402036ZM6.14467 2.16061C6.93118 2.14567 7.61806 2.13073 8.30502 2.12078C8.89242 2.11281 9.4898 2.11082 10.0772 2.10584C10.1369 2.10584 10.1967 2.10584 10.2565 2.10285C10.4158 2.09787 10.4356 2.06302 10.346 1.92361C10.2757 1.82146 10.1993 1.72369 10.1171 1.63085C9.82341 1.32329 9.5072 1.03803 9.17118 0.77745C9.09007 0.71318 9.01041 0.647112 8.93225 0.579289C8.90778 0.554247 8.87822 0.534721 8.84559 0.522013C8.81297 0.509305 8.7781 0.50371 8.74314 0.505603C8.31504 0.510582 7.88691 0.512567 7.46876 0.517546C7.33933 0.517546 7.21986 0.52452 7.09043 0.525515C6.46321 0.527507 5.83597 0.527504 5.20875 0.530492C4.24303 0.533479 3.28725 0.538459 2.33148 0.542442C2.09254 0.544434 2.09256 0.548421 1.97309 0.755547C1.86357 0.944748 1.81376 1.1459 1.81376 1.36398C1.82371 1.47351 1.82373 1.58305 1.83369 1.69258C1.84364 1.85789 1.92334 1.99929 2.00298 2.13771C2.03285 2.17953 2.07266 2.19745 2.11248 2.19945C2.18217 2.19945 2.25182 2.20144 2.31155 2.19945C3.28723 2.1875 4.26296 2.17256 5.22868 2.16061C5.56718 2.15662 5.90573 2.16061 6.14467 2.16061V2.16061ZM40.592 19.6726C40.602 19.7593 40.602 19.825 40.6219 19.8887C40.6618 20.0779 40.7912 20.1944 40.9803 20.2134C41.1055 20.2258 41.2318 20.2081 41.3487 20.1616C41.5379 20.0899 41.7071 19.9893 41.8664 19.8738C42.185 19.6428 42.4836 19.3769 42.7524 19.0861C43.2402 18.5534 43.6783 17.9748 44.0068 17.3206C44.1263 17.0776 44.2259 16.8277 44.2657 16.5568C44.2891 16.4412 44.2822 16.3215 44.2458 16.2093C44.186 16.0131 44.0567 15.9046 43.8476 15.9026C43.7669 15.9005 43.6864 15.9106 43.6087 15.9324C43.4295 15.9862 43.2702 16.0579 43.1109 16.1645C42.7425 16.4214 42.414 16.7221 42.1153 17.0507C41.6374 17.5616 41.2192 18.1162 40.9006 18.7376C40.801 18.9338 40.7114 19.1339 40.6517 19.347C40.6218 19.4605 40.612 19.5761 40.592 19.6726V19.6726Z" fill="black"/>
</svg>
