<svg width="39" height="40" viewBox="0 0 39 40" fill="none" xmlns="http://www.w3.org/2000/svg">
<path d="M20.0777 9.01609C20.0777 9.72311 20.0896 10.4321 20.0747 11.1401C20.0617 11.7426 20.007 12.344 19.9921 12.9465C19.9791 13.4434 19.997 13.9413 20.003 14.4382C20.004 14.5527 20.016 14.6672 20.016 14.7827C20.0179 15.3185 20.0179 15.8542 20.0179 16.3899C20.0179 16.4288 20.0189 16.4676 20.012 16.5045C20.0092 16.5238 19.9991 16.5412 19.9836 16.5532C19.9682 16.5651 19.9487 16.5705 19.9293 16.5682C19.8735 16.5636 19.8187 16.5502 19.7671 16.5284C19.7153 16.5055 19.6745 16.4606 19.6247 16.4318C19.4903 16.3541 19.323 16.3999 19.2653 16.5473C19.2195 16.6618 19.1757 16.7733 19.1129 16.8809C19.0492 16.9924 19.1219 17.1428 19.2553 17.1756C19.3648 17.2015 19.4823 17.2005 19.5948 17.1955C19.6326 17.1955 19.6745 17.1487 19.7023 17.1129C19.7372 17.0681 19.7611 17.0193 19.8218 16.9964C19.9741 16.9396 20.0319 16.9655 20.0568 17.1228C20.1185 17.5032 20.1095 17.8856 20.0966 18.268C20.0956 18.3198 20.0538 18.3517 19.998 18.3437C19.9517 18.3373 19.9065 18.3246 19.8636 18.3059C19.7949 18.274 19.7312 18.2312 19.6625 18.1983C19.6297 18.1814 19.556 18.2182 19.5411 18.2531C19.5002 18.3497 19.5391 18.4851 19.6327 18.5219C19.7382 18.5658 19.8487 18.5996 19.9602 18.6235C20.1026 18.6544 20.1046 18.6494 20.1056 18.7868C20.1056 18.8446 20.1175 18.9073 20.0986 18.9581C20.0389 19.1184 20.0767 19.2797 20.0797 19.4401C20.0856 19.7946 20.0966 20.1481 20.0946 20.5026C20.0936 20.7206 19.9711 20.8282 19.7481 20.8192C19.5271 20.8113 19.3091 20.8222 19.0891 20.8312C18.88 20.8411 18.6699 20.8093 18.4598 20.7943C18.3364 20.7844 18.2129 20.7575 18.0895 20.7625C17.295 20.7894 16.5015 20.7446 15.708 20.7137C15.0486 20.6859 14.3939 20.5891 13.7547 20.4249C13.6621 20.401 13.5685 20.3781 13.4799 20.3452C13.3007 20.2765 13.3156 20.2815 13.3774 20.0913C13.4122 19.9848 13.5048 19.928 13.5964 19.8732C13.6093 19.8653 13.6153 19.8434 13.6243 19.8264C13.6044 19.8165 13.5815 19.7946 13.5616 19.7966C13.3903 19.8145 13.2191 19.8334 13.0488 19.8563C13.02 19.8588 12.9925 19.8693 12.9694 19.8868C12.9463 19.9042 12.9286 19.9278 12.9184 19.9549C12.8824 20.0445 12.8198 20.1209 12.7392 20.174C12.6954 20.2058 12.7103 20.2317 12.7422 20.2606C12.7462 20.2636 12.7352 20.2905 12.7243 20.2994C12.6716 20.3407 12.607 20.3638 12.5401 20.3652C12.321 20.3691 12.102 20.397 11.881 20.3811C11.2896 20.3373 10.6972 20.3054 10.1049 20.2686C10.0003 20.2626 9.8958 20.2536 9.79026 20.2516C9.18694 20.2427 8.5856 20.1919 7.98527 20.1471C7.3745 20.1022 6.76315 20.0657 6.15139 20.0375C5.76809 20.0196 5.39375 19.9439 5.01642 19.8792C4.95967 19.8692 4.90392 19.8513 4.84717 19.8493C4.37924 19.8394 3.91032 19.8254 3.44239 19.8693C3.23332 19.8892 3.02226 19.8991 2.81219 19.9091C2.59017 19.919 2.37612 19.8573 2.16207 19.8115C1.85344 19.7468 1.54779 19.6721 1.24115 19.5974C1.01415 19.5426 0.882734 19.3903 0.857844 19.1533C0.850146 19.0772 0.847158 19.0007 0.848889 18.9242C0.850752 18.6275 0.818685 18.3315 0.753312 18.042C0.732405 17.9424 0.740367 17.8329 0.744349 17.7293C0.748149 17.6622 0.760874 17.5959 0.782183 17.5321C0.854861 17.3071 0.844903 17.088 0.786164 16.857C0.698552 16.5104 0.721448 16.1529 0.748329 15.7994C0.758352 15.6669 0.748284 15.5336 0.718463 15.4041C0.633869 15.0205 0.610349 14.626 0.648772 14.235C0.654745 14.1693 0.667692 14.1026 0.668688 14.0359C0.675657 13.5868 0.681629 13.1367 0.685611 12.6876C0.687602 12.4008 0.698554 12.113 0.684616 11.8262C0.669989 11.5974 0.642066 11.3697 0.600987 11.1441C0.52192 10.6815 0.491551 10.2119 0.510385 9.74302C0.522332 9.47614 0.501429 9.20629 0.558177 8.94241C0.572116 8.87668 0.576093 8.80896 0.595009 8.74523C0.810056 8.0183 0.823001 7.27345 0.798112 6.52661C0.788377 6.3643 0.763373 6.20326 0.723438 6.04564C0.649091 5.73848 0.618923 5.42228 0.633839 5.1066C0.643795 4.93433 0.643798 4.76107 0.627868 4.58979C0.609948 4.40358 0.675651 4.2323 0.693571 4.05306C0.700143 4.01551 0.719487 3.98138 0.748329 3.95646C0.90165 3.82303 1.06393 3.7115 1.28595 3.7354C1.44007 3.74569 1.59381 3.71037 1.72799 3.63383C1.95001 3.52031 2.17601 3.42471 2.42889 3.39483C2.54039 3.38288 2.6529 3.34106 2.75644 3.29326C3.16562 3.10406 3.59572 2.97063 4.03079 2.86109C4.57836 2.72168 5.11 2.53746 5.63069 2.31839C5.84176 2.22876 6.05382 2.14113 6.26787 2.05948C6.49287 1.97483 6.70593 1.87227 6.91301 1.74979C7.16191 1.60341 7.43072 1.50383 7.71745 1.45902C8.14356 1.3923 8.56171 1.29769 8.95895 1.12442C9.10829 1.0597 9.25762 0.99298 9.39999 0.915308C9.76338 0.721129 10.1397 0.55782 10.535 0.442308C10.6465 0.409447 10.755 0.37758 10.8406 0.292937C10.8864 0.248126 10.9461 0.252112 11.0029 0.261074C11.437 0.328788 11.877 0.34472 12.3111 0.415421C12.5361 0.45127 12.7681 0.457247 12.9971 0.465214C13.7716 0.496083 14.5452 0.520977 15.3198 0.549855C15.4631 0.554834 15.6055 0.570768 15.7479 0.574752C15.8624 0.577739 15.9788 0.583712 16.0903 0.563796C16.3193 0.520977 16.5423 0.526947 16.7703 0.585699C17.1696 0.685279 17.5768 0.742042 17.9879 0.773907C18.1492 0.786853 18.3105 0.810753 18.4718 0.826686C18.6749 0.846602 18.874 0.824695 19.0662 0.755985C19.2683 0.682297 19.4704 0.661385 19.6844 0.701216C19.8815 0.738061 20.0837 0.751007 20.2848 0.726113C20.3136 0.722129 20.3435 0.716149 20.3704 0.722124C20.5595 0.761956 20.7497 0.718146 20.9379 0.726113C21.129 0.734079 21.3192 0.752995 21.5103 0.761957C21.7114 0.771915 21.9125 0.770923 22.1127 0.781877C22.7528 0.815734 23.393 0.843616 24.0341 0.850587C24.3478 0.853574 24.6624 0.8934 24.977 0.917299C25.0048 0.920286 25.0337 0.92626 25.0616 0.932235C25.1462 0.949164 25.1651 0.988003 25.1333 1.07762C25.1263 1.09555 25.1114 1.10949 25.1044 1.12742C25.0706 1.22202 25.1014 1.27877 25.194 1.28973C25.2995 1.30168 25.4001 1.31064 25.4797 1.20807C25.5106 1.16824 25.5793 1.14733 25.6331 1.14136C25.8135 1.12376 25.9945 1.11213 26.1757 1.1065C26.2232 1.10881 26.2698 1.12138 26.3121 1.14335C26.5629 1.25388 26.5649 1.28873 26.4096 1.5098C26.3389 1.61103 26.2464 1.69509 26.1388 1.75576C26.0223 1.82347 25.9148 1.90413 25.8013 1.97384C25.5405 2.13317 25.2806 2.29548 25.0148 2.44784C24.7161 2.61812 24.4244 2.80134 24.1437 3.0015C23.8948 3.17875 23.6399 3.35002 23.383 3.51533C23.1678 3.65862 22.9361 3.77563 22.6931 3.86385C22.493 3.93356 22.3128 4.0421 22.1366 4.15762C21.9454 4.28408 21.7493 4.40457 21.5651 4.54199C21.2166 4.7989 20.8254 4.97815 20.4431 5.17332C20.4003 5.19523 20.3515 5.20718 20.3146 5.23507C20.24 5.29481 20.1553 5.29083 20.0687 5.28684L19.2085 5.25199L18.7217 5.22511C18.5694 5.21614 18.416 5.20021 18.2637 5.19922C17.746 5.19424 17.2323 5.14246 16.7176 5.09964C16.0406 5.04288 15.3636 5.00304 14.6846 4.96918C14.246 4.94595 13.8102 4.88666 13.3814 4.79193C13.0369 4.71725 12.6844 4.67344 12.336 4.61369C12.2623 4.60075 12.1896 4.57684 12.116 4.55593L11.7317 4.4454C11.652 4.42249 11.5594 4.44341 11.4977 4.36773C11.5584 4.32292 11.6212 4.27811 11.6809 4.2313C11.6958 4.21935 11.7496 4.20441 11.7078 4.1835C11.5734 4.1138 11.437 4.03812 11.2747 4.10384C11.2 4.13372 11.1453 4.17952 11.1423 4.23727C11.1373 4.29901 11.1761 4.35179 11.2538 4.38665C11.2707 4.39362 11.2906 4.39561 11.3095 4.40059L11.3643 4.41552C11.3513 4.42249 11.3394 4.43345 11.3265 4.43544C11.2645 4.44278 11.2052 4.46465 11.1533 4.49925C11.1014 4.53386 11.0584 4.58023 11.0278 4.6346C11.0119 4.66049 10.9651 4.67443 10.9302 4.67941C10.8834 4.68737 10.8346 4.6804 10.7868 4.6814C10.1265 4.68416 9.46637 4.66291 8.80762 4.61767C8.58859 4.60473 8.36956 4.57784 8.15053 4.55593C7.45661 4.48821 6.76268 4.41354 6.06676 4.3518C5.66753 4.31595 5.26532 4.302 4.86409 4.27412C4.48278 4.24724 4.10147 4.21338 3.72016 4.1855C3.54892 4.17355 3.37669 4.16757 3.20445 4.1616C2.77435 4.14666 2.34327 4.13571 1.91317 4.11778C1.76998 4.11041 1.62716 4.09712 1.48507 4.07795C1.40983 4.06339 1.33205 4.06958 1.26006 4.09587C1.19336 4.12376 1.14856 4.16857 1.13861 4.24226C1.13064 4.31097 1.18241 4.39361 1.26106 4.41751C1.32378 4.43743 1.39049 4.44739 1.45719 4.45038C1.57169 4.45735 1.68617 4.45237 1.80166 4.45834C2.18297 4.47826 2.56528 4.49817 2.94659 4.52506C3.09991 4.53502 3.25323 4.54796 3.40157 4.58182C3.78786 4.67045 4.17814 4.66945 4.5704 4.68638C5.11498 4.70929 5.66057 4.70829 6.20018 4.7999C6.27584 4.81285 6.34951 4.83376 6.42518 4.84571C6.48491 4.85566 6.52971 4.88255 6.56257 4.93533C6.64719 5.06976 6.78458 5.11258 6.92894 5.13449C7.07031 5.1544 7.21368 5.17133 7.35704 5.1773C7.50041 5.18328 7.64079 5.19125 7.78017 5.23905C7.84986 5.26295 7.93548 5.26892 8.00617 5.25199C8.20031 5.20619 8.39943 5.16237 8.57963 5.07972C8.67189 5.03326 8.77564 5.01458 8.8783 5.02594C9.2865 5.07573 9.69867 5.08968 10.1098 5.08271C10.2243 5.08171 10.3388 5.07873 10.4543 5.07275C10.7331 5.0608 11.0059 5.09267 11.2797 5.15341C11.5684 5.21714 11.8611 5.26294 12.1548 5.30178C12.3639 5.32966 12.5739 5.31771 12.784 5.28187C13.1713 5.21614 13.5596 5.16536 13.9528 5.23706C13.9807 5.24204 14.0096 5.24004 14.0384 5.24203L15.7299 5.31572C15.9111 5.32369 16.0903 5.34261 16.2656 5.39837C16.3452 5.42426 16.4348 5.42824 16.5194 5.42824C16.837 5.42824 17.1487 5.47704 17.4613 5.51588C17.7361 5.54974 18.0118 5.57363 18.2876 5.6045C18.42 5.61844 18.5524 5.63836 18.6858 5.65429C19.1219 5.70906 19.557 5.76184 19.9931 5.82059C20.0209 5.82457 20.0617 5.8654 20.0667 5.89428C20.0797 5.96797 20.0727 6.04664 20.0797 6.12331C20.0936 6.28264 20.0488 6.44097 20.0777 6.60528C20.1036 6.75465 20.0856 6.91099 20.0856 7.06334V9.01609H20.0777ZM3.49616 11.7476C3.19051 11.6201 2.88287 11.6719 2.57523 11.7306C2.49658 11.7456 2.45776 11.7993 2.45676 11.87C2.45676 11.9467 2.51351 12.0095 2.60211 12.0124C2.67678 12.0144 2.75146 12.0015 2.82613 11.9955C2.93962 11.9865 3.05212 11.9756 3.16462 11.9706C3.22038 11.9696 3.27712 11.9865 3.33387 11.9885C3.46429 11.9955 3.50611 11.9457 3.49715 11.7944C3.49615 11.7754 3.49018 11.7575 3.48719 11.7386C3.63653 11.8113 3.758 11.7645 3.86552 11.6549C3.90435 11.6171 3.9163 11.5414 3.89041 11.4986C3.86353 11.4548 3.82072 11.4389 3.77094 11.4389C3.69549 11.4391 3.62254 11.4659 3.56485 11.5145C3.4872 11.5793 3.50014 11.6649 3.49516 11.7476H3.49616ZM18.2478 10.2807C18.2518 10.3475 18.2498 10.4152 18.2597 10.4809C18.2736 10.5954 18.3179 10.7041 18.3882 10.7956C18.4264 10.8455 18.4819 10.8793 18.5438 10.8904C18.6057 10.9014 18.6695 10.8889 18.7227 10.8553C18.81 10.7953 18.8761 10.7094 18.9119 10.6096C18.9476 10.5099 18.9511 10.4015 18.9218 10.2997C18.8676 10.1241 18.8803 9.93463 18.9576 9.76791C18.9937 9.67977 19.0116 9.5853 19.0104 9.49009C19.0132 9.35647 19.0265 9.22329 19.0502 9.09177C19.0662 8.99916 19.0682 8.90158 19.0612 8.80698C19.0573 8.7586 19.0389 8.71252 19.0083 8.67483C18.9778 8.63714 18.9365 8.60961 18.8899 8.59587C18.8135 8.56664 18.7309 8.55761 18.65 8.56964C18.569 8.58168 18.4926 8.61437 18.428 8.66457C18.393 8.69002 18.364 8.72282 18.343 8.76066C18.322 8.79851 18.3096 8.84048 18.3065 8.88365C18.2966 9.00912 18.2946 9.13658 18.3543 9.24911C18.43 9.39051 18.4081 9.52295 18.3583 9.66236C18.2844 9.85978 18.247 10.069 18.2478 10.2798V10.2807ZM16.1571 9.80775C16.2367 9.81372 16.2666 9.8197 16.2934 9.81771C16.3761 9.80775 16.4318 9.73007 16.4129 9.6544C16.404 9.62201 16.3834 9.59409 16.3551 9.57605C16.3267 9.55802 16.2927 9.55116 16.2596 9.55681C16.2238 9.56477 16.179 9.57573 16.159 9.60162C16.1123 9.66136 16.0694 9.64643 16.0117 9.62154C15.8892 9.57175 15.7608 9.5359 15.6383 9.48511C15.487 9.42337 15.3417 9.4403 15.1923 9.49108C15.0674 9.53812 14.9384 9.57378 14.807 9.59764C14.5512 9.63548 14.3441 9.76692 14.146 9.91828C14.0529 9.98824 13.9911 10.0919 13.9737 10.2071C13.9668 10.2439 13.9558 10.2817 13.9558 10.3196C13.9558 10.4431 13.8841 10.5088 13.7786 10.5526C13.6024 10.6263 13.4271 10.702 13.233 10.7109C13.1653 10.7139 13.0986 10.7209 13.0468 10.7707C13.01 10.8055 12.9901 10.8484 13.004 10.8991C13.018 10.9459 13.0438 10.9858 13.0976 10.9967C13.1155 11.0007 13.1344 11.0047 13.1534 11.0057C13.459 11.0186 13.7368 10.924 13.9996 10.7836C14.0643 10.7516 14.1203 10.7045 14.1629 10.6462C14.2055 10.588 14.2335 10.5204 14.2445 10.449C14.2913 10.1772 14.4705 10.0189 14.7184 9.92525C14.7762 9.90335 14.8309 9.90035 14.8757 9.95014C14.9315 10.0129 15.0032 10.0308 15.0828 10.0258C15.1864 10.0189 15.2919 10.0119 15.3954 9.99695C15.5448 9.97504 15.6941 9.94218 15.8454 9.92127C15.941 9.90732 16.0346 9.90135 16.1073 9.82467C16.1282 9.80376 16.172 9.80376 16.1571 9.80775ZM4.16918 15.8891L4.16818 15.8821C4.05369 15.8821 3.93919 15.8801 3.8247 15.8821C3.79104 15.8828 3.75799 15.8912 3.72811 15.9068C3.69824 15.9223 3.67235 15.9445 3.65246 15.9717C3.60865 16.0275 3.62459 16.1181 3.68731 16.144C3.71294 16.1564 3.74059 16.1642 3.76895 16.1669C3.98798 16.1719 4.208 16.1808 4.42703 16.1778C4.65601 16.1749 4.885 16.1609 5.11299 16.152C5.16078 16.15 5.20956 16.1569 5.25536 16.149C5.38678 16.1251 5.5162 16.0912 5.64364 16.1669C5.66554 16.1798 5.70138 16.1768 5.72826 16.1709C5.89552 16.135 6.06278 16.0982 6.22905 16.0583C6.3077 16.0394 6.37639 15.9936 6.3983 15.9169C6.43215 15.7994 6.51279 15.7765 6.61534 15.7775C6.67308 15.7775 6.72983 15.7815 6.78657 15.7775C6.84233 15.7745 6.90007 15.7208 6.90903 15.673C6.91243 15.6444 6.90735 15.6155 6.89443 15.5898C6.8815 15.5642 6.86131 15.5429 6.83636 15.5286C6.79503 15.5057 6.74977 15.4909 6.70295 15.4848C6.61734 15.478 6.53128 15.48 6.44608 15.4907C6.30968 15.5107 6.18723 15.5585 6.13148 15.7038C6.11854 15.7367 6.08967 15.7815 6.06179 15.7875C5.92539 15.8134 5.79696 15.8901 5.64762 15.8393C5.57893 15.8154 5.49828 15.8194 5.42461 15.8194C5.27228 15.8233 5.11996 15.8333 4.96664 15.8403C4.84318 15.8462 4.71973 15.8502 4.59528 15.8572C4.45291 15.8662 4.31154 15.8771 4.16918 15.8891ZM16.5842 13.7581L16.5812 13.7421C16.4906 13.764 16.398 13.785 16.3084 13.8118C16.2606 13.8248 16.2516 13.8616 16.2954 13.8915C16.402 13.9612 16.4099 14.0429 16.3751 14.1604C16.3588 14.2436 16.3622 14.3296 16.385 14.4113C16.405 14.5039 16.4756 14.5607 16.5722 14.5567C16.8709 14.5457 17.1606 14.5985 17.4523 14.6443C17.6883 14.6822 17.9063 14.6134 18.1174 14.5248C18.2269 14.479 18.2388 14.3047 18.1373 14.238C18.0745 14.1959 18.0024 14.1696 17.9272 14.1614C17.7662 14.1467 17.6043 14.147 17.4434 14.1624C17.3401 14.1727 17.236 14.1727 17.1327 14.1624C16.9515 14.1484 16.8201 14.0787 16.8062 13.8756C16.8052 13.8566 16.8002 13.8337 16.7873 13.8218C16.7624 13.7957 16.7322 13.7753 16.6987 13.762C16.6638 13.7511 16.623 13.7591 16.5852 13.7591L16.5842 13.7581ZM5.14783 19.0457L4.86608 19.1075C4.86011 19.1095 4.85613 19.1294 4.85613 19.1413C4.85613 19.1453 4.87206 19.1513 4.88102 19.1513C4.89993 19.1543 4.91984 19.1513 4.93776 19.1563C5.00148 19.1702 5.00945 19.1831 4.97759 19.221C4.94573 19.2568 4.89993 19.2857 4.885 19.3265C4.87006 19.3664 4.87106 19.4261 4.89296 19.46C4.91487 19.4928 4.97261 19.5227 5.01244 19.5197C5.07616 19.5167 5.13887 19.4829 5.20359 19.467C5.3141 19.4401 5.42461 19.4052 5.53711 19.3972C5.62672 19.3913 5.70636 19.4002 5.76112 19.3096C5.77108 19.2917 5.8109 19.2797 5.83479 19.2827C6.03092 19.3146 6.20017 19.1841 6.39232 19.1911C6.44707 19.1931 6.49089 19.1254 6.49288 19.0686C6.49686 19.0009 6.44808 18.9292 6.38038 18.9242C6.15737 18.9063 5.94132 18.9163 5.78003 19.1055C5.75315 19.1373 5.72229 19.1453 5.68048 19.1373C5.51123 19.1055 5.34297 19.0796 5.14783 19.0467V19.0457ZM14.9823 17.8986C15.0062 17.8956 15.0649 17.8966 15.1177 17.8806C15.1519 17.8667 15.1796 17.8404 15.1953 17.807C15.2172 17.7592 15.1973 17.7084 15.1555 17.6815C15.1112 17.6465 15.0588 17.6233 15.0032 17.6138C14.9518 17.6122 14.9014 17.5992 14.8556 17.5757C14.8098 17.5523 14.7698 17.5191 14.7383 17.4783C14.6368 17.3589 14.4914 17.3509 14.3451 17.3788C14.3264 17.3823 14.3087 17.3897 14.2931 17.4005C14.2775 17.4113 14.2644 17.4254 14.2546 17.4416C14.2448 17.4579 14.2386 17.4761 14.2364 17.4949C14.2341 17.5138 14.2359 17.5329 14.2415 17.551C14.2624 17.6128 14.3023 17.6685 14.2764 17.7373C14.3381 17.7502 14.4018 17.7602 14.4636 17.7741C14.5084 17.7841 14.5601 17.79 14.596 17.8159C14.7035 17.8936 14.8269 17.8916 14.9823 17.8986ZM7.29133 14.961C7.17385 14.9809 7.01456 15.0058 6.85527 15.0337C6.83735 15.0367 6.82042 15.0476 6.8035 15.0566C6.75173 15.0845 6.71788 15.1462 6.72585 15.198C6.73062 15.2263 6.74447 15.2523 6.7653 15.272C6.78613 15.2918 6.81281 15.3042 6.84133 15.3075C6.89808 15.3135 6.95483 15.3105 7.01257 15.3135C7.07728 15.3175 7.06036 15.3404 7.0305 15.3782C6.9847 15.436 6.97674 15.5007 7.0295 15.5595C7.07729 15.6122 7.16789 15.6172 7.24056 15.5774C7.26974 15.5611 7.2917 15.5344 7.30204 15.5027C7.31238 15.4709 7.31033 15.4364 7.29632 15.4061C7.28636 15.3812 7.2565 15.3623 7.25052 15.3364C7.24554 15.3165 7.26047 15.2806 7.2764 15.2727C7.31025 15.2567 7.35007 15.2567 7.38592 15.2458C7.5024 15.2099 7.56513 15.1422 7.54322 15.0775C7.51734 15.0008 7.44864 14.963 7.29133 14.962V14.961ZM11.7078 12.7234C11.6779 12.6726 11.663 12.6249 11.6311 12.594C11.5951 12.5637 11.5535 12.5407 11.5086 12.5263C11.2926 12.4446 11.0636 12.4267 10.8386 12.3879C10.8207 12.3849 10.8008 12.3908 10.7829 12.3948C10.7361 12.4048 10.6724 12.4745 10.6833 12.5193C10.6938 12.5641 10.7166 12.6051 10.749 12.6378C10.7729 12.6617 10.8187 12.6657 10.8545 12.6736C11.0776 12.7234 11.3065 12.7433 11.5216 12.827C11.5455 12.8369 11.5833 12.835 11.6042 12.822C11.6411 12.7981 11.6689 12.7623 11.7078 12.7234ZM11.0646 2.09035C10.987 2.1003 10.8635 2.11424 10.7411 2.13416C10.7052 2.14013 10.6614 2.15109 10.6365 2.17499C10.6041 2.2082 10.5811 2.24944 10.5698 2.29448C10.5599 2.3393 10.6206 2.41199 10.6694 2.41995C10.7062 2.42692 10.747 2.43588 10.7819 2.42692C10.98 2.37912 11.1801 2.38709 11.3812 2.39108C11.4191 2.39305 11.4568 2.38516 11.4907 2.36817C11.5206 2.35025 11.5525 2.31539 11.5574 2.28353C11.5624 2.25166 11.5455 2.19889 11.5206 2.18296C11.4656 2.14585 11.4042 2.11949 11.3394 2.10528C11.2657 2.09034 11.1871 2.09532 11.0646 2.09035ZM12.3081 13.2452C12.3001 13.2064 12.3031 13.1735 12.2882 13.1556C12.2583 13.1198 12.2235 13.0759 12.1837 13.066C11.9746 13.0052 11.7625 12.9525 11.5505 12.8997C11.5246 12.8937 11.4937 12.9037 11.4668 12.9096C11.419 12.9226 11.3583 12.9953 11.3723 13.0381C11.3888 13.0811 11.4146 13.1198 11.4479 13.1516C11.4648 13.1695 11.4987 13.1735 11.5266 13.1805C11.7018 13.2223 11.877 13.2651 12.0532 13.305C12.098 13.3149 12.1488 13.3269 12.1926 13.3169C12.2324 13.307 12.2683 13.2711 12.3081 13.2452ZM17.5051 19.0408C17.8555 19.0477 17.8565 19.0477 17.9561 18.75C17.9747 18.6968 17.9871 18.6417 17.9929 18.5857C17.9949 18.5677 17.967 18.5329 17.9471 18.5279C17.8456 18.505 17.7311 18.4861 17.6474 18.5468C17.5987 18.5827 17.5867 18.6793 17.5738 18.752C17.5539 18.8655 17.4971 18.9412 17.3876 18.979C17.3707 18.985 17.3518 18.989 17.3348 18.9969C17.3269 19.0009 17.3229 19.0109 17.3169 19.0188C17.3249 19.0208 17.3328 19.0258 17.3418 19.0268L17.5051 19.0408ZM17.0401 1.50681C17.1158 1.49486 17.2383 1.47893 17.3587 1.45204C17.3886 1.44507 17.4324 1.39926 17.4304 1.37536C17.4274 1.33354 17.4025 1.2738 17.3687 1.25786C17.2786 1.21371 17.1806 1.18797 17.0804 1.18216C16.9802 1.17634 16.8799 1.19057 16.7853 1.22401C16.7265 1.24393 16.6957 1.29371 16.6967 1.35744C16.6977 1.42416 16.7474 1.48192 16.8211 1.49287C16.8769 1.50084 16.9346 1.50084 17.0401 1.50681ZM9.172 14.256C9.19191 14.252 9.22378 14.252 9.24568 14.237C9.27555 14.2171 9.31139 14.1892 9.31836 14.1594C9.32027 14.1413 9.31804 14.123 9.31183 14.1059C9.30562 14.0888 9.29559 14.0734 9.28251 14.0608C9.23176 14.0193 9.17503 13.9857 9.11426 13.9612C8.8564 13.8586 8.72299 13.8955 8.54777 14.1096L8.52985 14.1315C8.49699 14.1723 8.50496 14.2042 8.55275 14.2092C8.65331 14.2191 8.74988 14.247 8.8584 14.2261C8.95497 14.2072 9.06149 14.244 9.172 14.256ZM6.47794 5.89826C6.44111 5.90523 6.36544 5.91419 6.29276 5.93311C6.25987 5.94053 6.23093 5.95994 6.2116 5.98756C6.19227 6.01519 6.18393 6.04904 6.18823 6.08249C6.1942 6.13526 6.24099 6.196 6.29774 6.19799C6.46699 6.20397 6.63824 6.20596 6.80848 6.20098C6.85428 6.19998 6.89409 6.16016 6.90306 6.10738C6.91301 6.05361 6.88116 6.01776 6.84133 5.98987C6.74376 5.92415 6.63226 5.90423 6.47794 5.89826ZM19.7233 3.42072C19.778 3.41674 19.8746 3.41874 19.9672 3.39982C20.005 3.39185 20.0418 3.34505 20.0647 3.30621C20.0876 3.26737 20.0428 3.19468 19.9901 3.1668C19.9652 3.15385 19.9383 3.13693 19.9114 3.13494C19.769 3.12996 19.6257 3.12497 19.4823 3.12995C19.4405 3.13194 19.3947 3.16282 19.3599 3.1917C19.2932 3.24547 19.319 3.37392 19.3987 3.4028C19.4246 3.41276 19.4534 3.41873 19.4823 3.41973C19.549 3.42172 19.6157 3.41973 19.7233 3.41973V3.42072ZM14.7811 12.2594C14.6244 12.2685 14.4768 12.3364 14.368 12.4496C14.3467 12.4753 14.3346 12.5074 14.3337 12.5408C14.3328 12.5742 14.3431 12.607 14.363 12.6338C14.4048 12.6836 14.4646 12.6946 14.5173 12.6687C14.6527 12.6009 14.7961 12.5581 14.9395 12.5123C15.0271 12.4844 15.1107 12.3779 15.0828 12.358C15.039 12.3281 14.9852 12.3122 14.9335 12.2962C14.8797 12.2793 14.824 12.2693 14.7811 12.2594ZM5.64463 3.33011C5.57892 3.34306 5.49231 3.35002 5.41366 3.3799C5.37881 3.39384 5.34894 3.44861 5.33799 3.48943C5.32604 3.54022 5.36786 3.57706 5.41167 3.59897C5.43715 3.61192 5.46427 3.6213 5.49231 3.62685C5.61476 3.64876 5.73623 3.66669 5.85869 3.68661C5.95924 3.70453 5.98811 3.68461 6.01002 3.57806C6.03789 3.44762 5.99408 3.37492 5.86466 3.35201C5.79895 3.34106 5.73125 3.33907 5.64463 3.33011ZM15.2899 1.21504C15.4243 1.23098 15.494 1.23197 15.5408 1.17521C15.5975 1.10451 15.6702 1.10849 15.7479 1.1075C15.7688 1.1075 15.8126 1.11048 15.7947 1.06567C15.7837 1.04039 15.7634 1.02038 15.7379 1.00991C15.6284 0.97904 15.5179 0.95315 15.4074 0.926264C15.2959 0.899377 15.1814 0.875475 15.0738 0.932235C15.0349 0.956814 15.0051 0.993573 14.9892 1.0368C14.9723 1.08061 15.0241 1.1543 15.0768 1.16824C15.1684 1.19214 15.262 1.20807 15.2899 1.21504ZM9.17001 10.0746C9.09235 10.0796 9.04059 10.0716 8.99977 10.0886C8.94961 10.1086 8.90565 10.1416 8.87233 10.1842C8.84943 10.214 8.92211 10.3236 8.96891 10.3435C8.98557 10.3521 9.00331 10.3585 9.02167 10.3624C9.12422 10.3783 9.22676 10.3973 9.3303 10.4062C9.37703 10.4084 9.42372 10.4013 9.4677 10.3853C9.52444 10.3664 9.56427 10.3256 9.56725 10.2618C9.56771 10.2334 9.55879 10.2056 9.54187 10.1827C9.52496 10.1599 9.50099 10.1432 9.47367 10.1354C9.36415 10.1085 9.25165 10.0905 9.17001 10.0746ZM1.7927 7.25454C1.73496 7.2625 1.67423 7.25951 1.62346 7.27943C1.56175 7.30356 1.50529 7.3394 1.45719 7.38498C1.41438 7.42581 1.41338 7.48854 1.44225 7.54431C1.46714 7.59111 1.51493 7.62298 1.55974 7.60804C1.71505 7.55427 1.87634 7.55825 2.03762 7.5473C2.11428 7.54132 2.15609 7.4278 2.09934 7.37104C2.06006 7.33029 2.01255 7.29838 1.95996 7.27743C1.90919 7.25752 1.84846 7.26151 1.7937 7.25454H1.7927ZM4.72372 16.4915C4.60524 16.4985 4.49971 16.5124 4.41408 16.5782C4.36886 16.6116 4.334 16.6572 4.31353 16.7096C4.30159 16.7464 4.31652 16.8092 4.3434 16.838C4.37028 16.8669 4.433 16.8898 4.46884 16.8779C4.60325 16.8331 4.73268 16.7723 4.86409 16.7186C4.91686 16.6967 4.97062 16.6797 5.02139 16.6558C5.03035 16.6518 5.03434 16.614 5.02737 16.607C4.94158 16.5369 4.83541 16.4964 4.72471 16.4915H4.72372ZM9.49756 16.9934C9.5573 16.9864 9.6698 16.9735 9.78131 16.9585C9.8277 16.9534 9.87342 16.9434 9.9177 16.9287C9.96748 16.9117 9.99436 16.843 9.98341 16.7853C9.97988 16.7617 9.9695 16.7397 9.95357 16.722C9.93764 16.7043 9.91686 16.6917 9.89381 16.6857C9.83606 16.6688 9.7594 16.6638 9.73451 16.7116C9.66382 16.856 9.5553 16.8112 9.44579 16.7913C9.40832 16.7864 9.37032 16.7878 9.33329 16.7952C9.30953 16.7976 9.28695 16.8067 9.26824 16.8215C9.24953 16.8364 9.23548 16.8563 9.22776 16.8789C9.2178 16.9058 9.21083 16.9336 9.20287 16.9605C9.18097 17.0402 9.21083 17.076 9.28152 17.0571C9.33627 17.0422 9.39103 17.0253 9.49756 16.9934ZM9.47466 2.16204L9.80918 2.1969C9.84503 2.20088 9.87887 2.14711 9.86194 2.11723C9.84701 2.09234 9.83009 2.07043 9.81416 2.04653C9.75573 1.9595 9.66748 1.89687 9.56605 1.87046C9.46463 1.84404 9.35704 1.85567 9.2636 1.90314C9.24724 1.91241 9.23218 1.92379 9.2188 1.93699C9.18097 1.97185 9.15906 2.0545 9.18893 2.09533C9.21681 2.12919 9.25862 2.15806 9.30044 2.173C9.3323 2.18395 9.37411 2.17001 9.47466 2.16304V2.16204ZM23.619 1.37138C23.6359 1.37437 23.6837 1.38931 23.7295 1.38632C23.8131 1.37935 23.8977 1.3664 23.9804 1.34748C24.0391 1.33454 24.062 1.26782 24.0511 1.18118C24.0431 1.11745 23.9903 1.11347 23.9455 1.11148C23.85 1.10949 23.7554 1.11745 23.6608 1.11247C23.5897 1.10826 23.5187 1.12245 23.4547 1.15367C23.3907 1.1849 23.3359 1.2321 23.2954 1.29072C23.2855 1.30267 23.2765 1.32956 23.2815 1.33354C23.2964 1.3452 23.3144 1.35215 23.3333 1.35346C23.4179 1.36043 23.5035 1.36441 23.619 1.37138ZM8.43825 9.80576C8.5179 9.79679 8.60352 9.7948 8.68715 9.77688C8.71702 9.7709 8.75187 9.73306 8.76381 9.70119C8.78074 9.65439 8.75784 9.60859 8.71802 9.57572C8.70363 9.5635 8.68752 9.55343 8.67023 9.54585C8.52288 9.4861 8.37155 9.50005 8.22022 9.52594C8.20182 9.53124 8.18526 9.54159 8.17243 9.55581C8.13858 9.58867 8.09677 9.62552 8.11966 9.6773C8.13758 9.71713 8.16945 9.76891 8.20629 9.77986C8.27697 9.80078 8.35562 9.79779 8.43825 9.80476V9.80576ZM16.846 7.67575L16.848 7.65982C16.9426 7.65982 17.0371 7.6658 17.1317 7.65783C17.1855 7.65186 17.2383 7.62497 17.29 7.60406C17.302 7.59808 17.3129 7.57419 17.3119 7.55825C17.3109 7.54332 17.297 7.51842 17.2851 7.51543C17.0929 7.46464 16.8988 7.42581 16.6987 7.46863C16.6169 7.48706 16.5362 7.50966 16.4567 7.53634C16.4418 7.54033 16.4249 7.56422 16.4249 7.57916C16.4249 7.5931 16.4438 7.61899 16.4567 7.61999C16.5861 7.63991 16.7166 7.65783 16.846 7.67575ZM8.55972 2.68483C8.64932 2.66392 8.73394 2.65098 8.8116 2.6231C8.8564 2.60816 8.88229 2.56235 8.8793 2.50858C8.87629 2.48032 8.86506 2.45357 8.84702 2.43162C8.82897 2.40968 8.80489 2.3935 8.77775 2.3851C8.7678 2.38311 8.75884 2.38012 8.74988 2.38012C8.62708 2.38134 8.50429 2.38299 8.3815 2.3851C8.37155 2.3851 8.3596 2.38709 8.35363 2.39307C8.32376 2.42692 8.27796 2.45879 8.27298 2.49663C8.26701 2.53447 8.2929 2.60019 8.32277 2.61513C8.39644 2.65098 8.48106 2.66293 8.55972 2.68483ZM8.85142 6.85423H8.80563C8.73195 6.85821 8.6762 6.906 8.66923 6.97173C8.66574 7.00472 8.67387 7.0379 8.69223 7.06554C8.71059 7.09317 8.73802 7.11353 8.76978 7.12309C8.84943 7.14699 8.93406 7.1689 9.01669 7.17288C9.08153 7.17296 9.14578 7.16045 9.20585 7.13603C9.22278 7.12898 9.23801 7.1184 9.25054 7.10501C9.26307 7.09162 9.27261 7.07572 9.27853 7.05836C9.29147 7.00857 9.25264 6.97173 9.21183 6.94584C9.10209 6.88349 8.9776 6.85185 8.85142 6.85423ZM21.4834 2.7187C21.5521 2.70675 21.6358 2.69579 21.7174 2.67787C21.7662 2.66592 21.807 2.62807 21.804 2.57828C21.801 2.53745 21.7791 2.4807 21.7463 2.46078C21.5969 2.36917 21.4416 2.37913 21.2893 2.45979C21.2445 2.48369 21.2136 2.55837 21.2365 2.60816C21.2565 2.64877 21.289 2.68191 21.3291 2.70276C21.369 2.72068 21.4207 2.71272 21.4834 2.7187ZM12.9672 13.6983C13.0867 13.6943 13.1404 13.6585 13.1474 13.6057C13.1554 13.546 13.1394 13.4942 13.0857 13.4593C13.0777 13.4543 13.0707 13.4464 13.0618 13.4444C12.9523 13.4195 12.8427 13.3906 12.7332 13.3737C12.6994 13.3677 12.6605 13.3886 12.6267 13.4036C12.5769 13.4235 12.56 13.4673 12.56 13.5171C12.56 13.5679 12.5829 13.6137 12.6327 13.6266C12.7601 13.6575 12.8895 13.6814 12.9672 13.6983ZM5.13987 8.71038C5.22151 8.70341 5.30912 8.7054 5.39076 8.68449C5.4266 8.67553 5.46344 8.62574 5.47737 8.58591C5.48633 8.56002 5.45946 8.51621 5.43955 8.48633C5.42329 8.46295 5.39988 8.44547 5.37284 8.43654C5.24597 8.39383 5.10809 8.39736 4.98357 8.4465C4.96664 8.45447 4.94573 8.46641 4.93975 8.48234C4.92084 8.52317 4.89495 8.56898 4.89894 8.60981C4.90292 8.65562 4.94175 8.69544 4.99451 8.70241C5.04131 8.70839 5.0891 8.70839 5.13987 8.71038ZM10.1676 16.2764C10.3428 16.2754 10.4802 16.2067 10.6315 16.0514C10.6415 16.0414 10.6315 15.9936 10.6196 15.9886C10.5788 15.9687 10.53 15.9458 10.4872 15.9498C10.3749 15.9637 10.2636 15.9839 10.1537 16.0105C10.0879 16.0255 10.0372 16.1061 10.0392 16.1898C10.0392 16.2127 10.0611 16.2446 10.082 16.2555C10.1138 16.2714 10.1537 16.2734 10.1686 16.2764H10.1676ZM12.8358 4.09388C12.9184 4.06998 13.002 4.05306 13.0787 4.02119C13.1414 3.9963 13.1434 3.88875 13.0857 3.85191C13.0181 3.80788 12.9408 3.78097 12.8605 3.77351C12.7802 3.76605 12.6992 3.77826 12.6247 3.80908C12.6147 3.81207 12.6028 3.81605 12.5998 3.82302C12.5829 3.86385 12.555 3.90668 12.555 3.9485C12.555 3.97838 12.5849 4.02617 12.6128 4.03712C12.6824 4.06401 12.7581 4.07496 12.8358 4.09388ZM12.549 8.75917C12.5471 8.75917 12.4803 8.76515 12.4166 8.77909C12.3609 8.79204 12.327 8.85278 12.331 8.91253C12.335 8.97427 12.3738 9.02903 12.4286 9.037C12.5321 9.05393 12.6357 9.06688 12.7392 9.07584C12.7949 9.08082 12.8547 9.03502 12.8696 8.98323C12.8875 8.92249 12.8666 8.86971 12.8248 8.82788C12.7671 8.77013 12.6914 8.75718 12.549 8.75818V8.75917ZM12.2912 14.2141L12.2474 14.2171C12.1747 14.2221 12.115 14.2729 12.111 14.3346C12.106 14.4013 12.1458 14.4442 12.2006 14.4641C12.2962 14.4989 12.3947 14.5288 12.4953 14.5517C12.5278 14.5582 12.5615 14.5529 12.5904 14.5366C12.6192 14.5203 12.6413 14.4942 12.6526 14.4631C12.6665 14.4163 12.6406 14.3456 12.5928 14.3157C12.5033 14.2559 12.3996 14.2209 12.2922 14.2141H12.2912ZM21.1489 3.16979L21.0464 3.20265C21.0583 3.23551 21.0822 3.27036 21.0792 3.30223C21.0733 3.36397 21.0802 3.42173 21.134 3.4516C21.2545 3.52131 21.3819 3.54122 21.5103 3.46654C21.579 3.4267 21.586 3.32015 21.5223 3.27435C21.4131 3.19859 21.2816 3.16176 21.1489 3.16979ZM8.36558 3.86485C8.28892 3.87281 8.2023 3.83896 8.1575 3.9246C8.09478 4.04509 8.1117 4.14168 8.20728 4.23329C8.23416 4.25918 8.26701 4.2791 8.29987 4.29802C8.32027 4.31029 8.34386 4.31617 8.36763 4.31493C8.3914 4.31368 8.41426 4.30537 8.43328 4.29105C8.45772 4.2758 8.47638 4.25283 8.4863 4.22577C8.49622 4.19872 8.49683 4.16912 8.48803 4.14168C8.47431 4.09706 8.45161 4.05572 8.42133 4.0202C8.38051 3.96941 8.39146 3.94053 8.44821 3.91962C8.4512 3.91862 8.44821 3.88278 8.44323 3.88079C8.41635 3.87083 8.38847 3.86883 8.36657 3.86485H8.36558ZM14.1559 14.3346C14.2137 14.3296 14.2615 14.3296 14.3073 14.3207C14.3307 14.3171 14.3523 14.306 14.369 14.2892C14.3857 14.2723 14.3965 14.2506 14.3998 14.2271C14.4049 14.2039 14.4025 14.1796 14.393 14.1578C14.3835 14.136 14.3675 14.1178 14.3471 14.1056C14.2286 14.0279 14.0982 14.0309 13.9658 14.0558C13.915 14.0668 13.8712 14.1315 13.8732 14.1853C13.8742 14.237 13.918 14.2978 13.9717 14.3087C14.0355 14.3227 14.1012 14.3277 14.1559 14.3346ZM17.7858 16.6608L17.4244 16.7733C17.4185 16.7743 17.4125 16.7893 17.4145 16.7932C17.4224 16.8082 17.4324 16.8311 17.4443 16.8331C17.6007 16.859 17.758 16.8849 17.9153 16.9058C17.9989 16.9177 18.0546 16.8888 18.0517 16.846C18.0502 16.8179 18.0409 16.7907 18.025 16.7675C18.009 16.7443 17.9868 16.726 17.9611 16.7146C17.9113 16.6907 17.8555 16.6817 17.7858 16.6608ZM1.96195 13.525V13.53C2.00974 13.527 2.05753 13.528 2.10332 13.5201C2.15808 13.5101 2.18297 13.4663 2.18098 13.4165C2.18059 13.3787 2.16955 13.3418 2.14913 13.31C2.07944 13.2154 1.90819 13.1925 1.8146 13.2622C1.76482 13.3 1.75189 13.3558 1.76184 13.4165C1.7663 13.4447 1.77994 13.4706 1.80064 13.4902C1.82135 13.5099 1.84796 13.5221 1.87633 13.525C1.90521 13.528 1.93408 13.525 1.96195 13.525ZM13.7756 2.82923C13.8164 2.81628 13.8801 2.79736 13.9419 2.77645C13.9787 2.7635 13.9668 2.73562 13.9578 2.70973C13.913 2.57629 13.8543 2.53347 13.7328 2.54841C13.6998 2.55167 13.669 2.5666 13.646 2.59051C13.623 2.61442 13.6093 2.64575 13.6073 2.67886C13.6054 2.74956 13.679 2.82525 13.7756 2.82823V2.82923ZM1.83253 15.0845C1.84547 15.0158 1.80664 14.963 1.72699 14.9441C1.63042 14.9202 1.5448 14.9699 1.53584 15.0556C1.53091 15.0884 1.53897 15.1218 1.55831 15.1488C1.57764 15.1758 1.60673 15.1941 1.63938 15.2C1.73795 15.2179 1.81461 15.1721 1.83253 15.0845ZM4.77449 11.5225C4.7486 11.5325 4.67791 11.5574 4.60922 11.5862C4.59727 11.5912 4.58732 11.6171 4.58931 11.633C4.59031 11.648 4.60424 11.6709 4.61719 11.6749C4.6809 11.6948 4.74462 11.7117 4.81033 11.7247C4.90292 11.7416 4.98456 11.6878 4.97659 11.6191C4.97062 11.5593 4.90889 11.5195 4.77449 11.5225ZM15.9231 14.007C15.9176 13.9741 15.9014 13.944 15.8768 13.9215C15.8523 13.8989 15.8209 13.8852 15.7877 13.8825C15.71 13.8805 15.6503 13.9602 15.6662 14.0419C15.6802 14.1116 15.7429 14.1584 15.8106 14.1494C15.8753 14.1414 15.9301 14.0697 15.9241 14.007H15.9231ZM21.2146 1.47296C21.2883 1.47296 21.3271 1.47793 21.364 1.47196C21.3839 1.46797 21.4008 1.44607 21.4187 1.43213C21.4058 1.41819 21.3948 1.40126 21.3789 1.39329C21.3193 1.36412 21.2538 1.34921 21.1874 1.34973C21.1211 1.35025 21.0557 1.36618 20.9966 1.39628C20.9906 1.39927 20.9886 1.41321 20.9886 1.42217C20.9876 1.42914 20.9916 1.44208 20.9956 1.44208C21.0802 1.45503 21.1649 1.46698 21.2146 1.47296ZM2.02468 14.9112C2.00676 14.9132 1.95996 14.9182 1.91516 14.9301C1.90421 14.9331 1.89127 14.958 1.89226 14.9729C1.89226 14.9869 1.9072 15.0098 1.91914 15.0118C1.9649 15.0219 2.01165 15.027 2.05853 15.0267C2.11328 15.0247 2.17202 15.0287 2.20986 14.9719C2.23574 14.9341 2.17402 14.9102 2.02468 14.9112ZM5.32604 11.6709C5.32803 11.6181 5.2922 11.5793 5.23843 11.5862C5.22548 11.5891 5.21331 11.5947 5.20281 11.6028C5.19231 11.6109 5.18374 11.6212 5.17771 11.633C5.16078 11.6739 5.2026 11.7286 5.24839 11.7366C5.28224 11.7416 5.32505 11.7067 5.32604 11.6709ZM31.0401 24.2617C31.0053 24.43 31.0411 24.6262 31.0769 24.8233C31.1038 24.9727 31.1048 25.127 31.1188 25.2794C31.1247 25.3362 31.1277 25.3939 31.1436 25.4477C31.1576 25.4955 31.2014 25.5234 31.2532 25.5254C31.3059 25.5274 31.3507 25.5015 31.3677 25.4557C31.3867 25.4018 31.3975 25.3454 31.3995 25.2884C31.4075 25.0872 31.4144 24.8861 31.4144 24.6849C31.4144 24.4539 31.4363 24.2268 31.5001 24.0048C31.524 23.9221 31.5508 23.8385 31.5578 23.7528C31.5737 23.5387 31.6783 23.3844 31.8326 23.239C32.3483 22.7541 32.8561 22.2611 33.3648 21.7692C33.4952 21.6428 33.6167 21.5063 33.7471 21.3799L37.7135 17.5122C37.7613 17.4654 37.8141 17.4236 37.8669 17.3837C37.8748 17.3778 37.9037 17.3897 37.9146 17.4007C37.9265 17.4158 37.9331 17.4343 37.9336 17.4535C37.9425 17.7502 37.9594 18.045 38.0451 18.3337C38.065 18.4034 38.05 18.4851 38.0431 18.5608C38.0112 18.9611 37.9764 19.3614 37.9435 19.7617L37.827 21.1339C37.8221 21.1817 37.8211 21.2335 37.7992 21.2733C37.7245 21.4058 37.7305 21.5482 37.7215 21.6915C37.7105 21.8718 37.6817 22.052 37.6608 22.2323C37.6563 22.2998 37.6276 22.3634 37.5801 22.4115C37.5498 22.4423 37.526 22.4789 37.5103 22.5191C37.4945 22.5593 37.4871 22.6023 37.4885 22.6455C37.4865 22.769 37.4885 22.8935 37.4895 23.017C37.5901 23.1384 37.5154 23.2241 37.4348 23.3147C37.3462 23.4143 37.3302 23.5139 37.371 23.6553C37.4168 23.8086 37.4298 23.9689 37.5293 24.1064C37.5542 24.1402 37.5572 24.196 37.5542 24.2418C37.5303 24.5853 37.5064 24.9289 37.4736 25.2724C37.4598 25.3473 37.4307 25.4185 37.388 25.4815C37.3312 25.5811 37.2585 25.6707 37.2038 25.7713C37.1685 25.8384 37.1443 25.9107 37.1321 25.9854C37.1142 26.1009 37.1729 26.1487 37.3014 26.1378C37.3651 26.1328 37.388 26.1487 37.386 26.2055C37.382 26.311 37.379 26.4166 37.3701 26.5212L37.2187 28.2359C37.1968 28.4839 37.1749 28.7308 37.155 28.9788L37.0226 30.6378C37.0007 30.9046 36.9738 31.1715 36.9559 31.4384C36.9429 31.6455 36.8663 31.8248 36.7558 31.998C36.2952 32.7368 35.7864 33.4444 35.2325 34.1161C34.1195 35.4435 33.0631 36.8157 31.9998 38.1829C31.7888 38.4547 31.5727 38.7236 31.3657 38.9994C31.2342 39.1747 31.1148 39.3599 30.9893 39.5412C30.9296 39.6278 30.8708 39.7144 30.7693 39.7602C30.7235 39.7811 30.6648 39.7523 30.6648 39.7035C30.6648 39.589 30.6658 39.4734 30.6717 39.3589C30.6817 39.1588 30.6986 38.9586 30.7096 38.7585L30.7822 37.2678L30.8967 35.1188L31.0122 32.942L31.1267 30.7941C31.1655 30.0682 31.2024 29.3422 31.2432 28.6163C31.2681 28.1682 31.3 27.7201 31.3268 27.272C31.3289 27.2244 31.3239 27.1767 31.3119 27.1306C31.3038 27.103 31.2872 27.0786 31.2645 27.0609C31.2419 27.0432 31.2142 27.0331 31.1855 27.032C31.1317 27.032 31.07 27.0778 31.058 27.1316C31.0501 27.1686 31.0451 27.2063 31.0431 27.2441C31.0232 27.6076 31.0063 27.97 30.9853 28.3335C30.9575 28.8105 30.9256 29.2875 30.8977 29.7645C30.8898 29.9078 30.8898 30.0512 30.8828 30.1946C30.827 31.3985 30.7649 32.6021 30.6966 33.8054C30.6697 34.2734 30.6369 34.7404 30.609 35.2085C30.5991 35.3708 30.6001 35.5331 30.5921 35.6964C30.5712 36.1545 30.5503 36.6135 30.5244 37.0716C30.4985 37.5396 30.4646 38.0066 30.4378 38.4747C30.4258 38.6748 30.4248 38.876 30.4139 39.0771C30.4029 39.2872 30.387 39.4963 30.3721 39.7065C30.3651 39.7921 30.3283 39.8269 30.2406 39.818C30.1172 39.8043 29.9943 39.786 29.8723 39.7632C28.8309 39.5611 27.7905 39.3549 26.7491 39.1568C26.3837 39.0871 26.0134 39.0403 25.645 38.9815C25.2298 38.9158 24.8157 38.8471 24.3995 38.7843C24.0312 38.7276 23.6618 38.6798 23.2934 38.624C22.7449 38.5424 22.1973 38.4567 21.6497 38.3731L20.7139 38.2307C20.3933 38.1829 20.0717 38.1371 19.7501 38.0903C19.3907 38.0385 19.0313 37.9847 18.6709 37.9369C18.2358 37.8792 17.7998 37.8184 17.3627 37.7766C17.1656 37.7577 17.0909 37.6213 17.0053 37.4848C16.9754 37.438 17.0162 37.3424 17.074 37.3126C17.1337 37.2817 17.1974 37.2608 17.2572 37.2319C17.302 37.2139 17.341 37.184 17.3699 37.1454C17.3989 37.1067 17.4167 37.0609 17.4214 37.0128C17.4414 36.8236 17.4782 36.6354 17.3617 36.4572C17.3279 36.4064 17.3279 36.3287 17.3269 36.263C17.3229 36.0908 17.3229 35.9184 17.3269 35.7462C17.3518 34.608 17.3776 33.4688 17.4055 32.3306C17.4224 31.6136 17.4424 30.8957 17.4613 30.1787L17.521 27.8256L17.5748 25.7016C17.5788 25.5572 17.5768 25.4148 17.6763 25.2933C17.6981 25.2618 17.7112 25.225 17.7141 25.1868C17.7331 25.0125 17.7988 24.8532 17.8605 24.6929C17.977 24.3902 17.8874 24.1611 17.6484 23.9878C17.5259 23.8965 17.4116 23.7945 17.307 23.6831C17.1546 23.5248 16.9884 23.3844 16.7693 23.3127C16.6031 23.2589 16.4806 23.1295 16.3502 23.0189C16.3034 22.9791 16.2885 22.9224 16.2924 22.8626C16.2994 22.7561 16.2676 22.6565 16.2516 22.5539C16.2297 22.4045 16.2467 22.2492 16.2496 22.0958C16.2506 22.049 16.2646 22.0012 16.2705 21.9544C16.2964 21.7652 16.2536 21.7164 16.5394 21.7662C16.8878 21.828 17.2393 21.8638 17.5897 21.9116L18.5833 22.0461L19.7203 22.2004C20.0508 22.2452 20.3823 22.29 20.7139 22.3368C21.0643 22.3846 21.4138 22.4344 21.7642 22.4812C22.2471 22.5459 22.7309 22.6077 23.2138 22.6734C23.7345 22.7431 24.2552 22.8158 24.7759 22.8875C25.2677 22.9562 25.7595 23.0249 26.2523 23.0916L27.3037 23.233C27.7955 23.2998 28.2873 23.3695 28.7801 23.4372C29.1206 23.484 29.4611 23.5298 29.8026 23.5746C30.1341 23.6184 30.4656 23.6592 30.7972 23.7041C30.845 23.71 30.8908 23.724 30.9376 23.7339C31.0043 23.7479 31.0361 23.7957 31.0381 23.8564C31.0431 23.9799 31.0401 24.1044 31.0401 24.2607V24.2617ZM35.8717 24.9329C35.8438 24.903 35.8179 24.8522 35.7821 24.8432C35.7303 24.8313 35.6606 24.8313 35.6178 24.8572C35.3738 25.007 35.1497 25.187 34.9508 25.3929C34.9368 25.4069 34.9289 25.4248 34.9199 25.4407C34.9071 25.4664 34.9023 25.4953 34.9062 25.5238C34.9101 25.5522 34.9225 25.5788 34.9418 25.6C34.9619 25.6207 34.9882 25.634 35.0167 25.638C35.0452 25.6419 35.0742 25.6363 35.0991 25.622C35.131 25.602 35.1598 25.5771 35.1897 25.5522C35.3679 25.4089 35.5461 25.2655 35.7234 25.1201C35.7608 25.0911 35.7957 25.0592 35.8279 25.0245C35.8458 25.0046 35.8528 24.9747 35.8717 24.9329ZM26.4096 36.6185C26.4325 36.6155 26.4544 36.6185 26.4684 36.6085C26.4982 36.5876 26.5311 36.5647 26.548 36.5349C26.5759 36.4871 26.551 36.4373 26.5142 36.4084C26.4706 36.3723 26.4196 36.3465 26.3648 36.3327C26.17 36.2941 25.9741 36.2609 25.7774 36.2331C25.7307 36.2282 25.6836 36.2383 25.643 36.262C25.6141 36.2769 25.5813 36.3198 25.5823 36.3486C25.5864 36.3944 25.6056 36.4375 25.637 36.4711C25.6599 36.495 25.7047 36.5 25.7416 36.507C25.9367 36.5438 26.1328 36.5787 26.328 36.6135C26.3559 36.6185 26.3847 36.6175 26.4096 36.6185ZM27.3445 25.8171C27.2569 25.8171 27.1802 25.8151 27.1045 25.8171C27.0757 25.8179 27.048 25.8286 27.0262 25.8475C27.0045 25.8664 26.9899 25.8923 26.9851 25.9207C26.9761 25.9774 27.004 26.0412 27.0558 26.0641C27.0986 26.084 27.1454 26.0989 27.1912 26.1039C27.3614 26.1208 27.5326 26.1378 27.7029 26.1437C27.7683 26.1436 27.8331 26.1301 27.893 26.1039C27.9578 26.077 27.9667 25.9755 27.912 25.9346C27.8754 25.9051 27.8324 25.8847 27.7865 25.8749C27.6372 25.851 27.4849 25.8351 27.3445 25.8171ZM21.589 34.9665C21.6985 34.9515 21.7941 34.9456 21.8857 34.9237C21.9623 34.9047 22.0022 34.8151 21.9802 34.7404C21.9653 34.6906 21.9175 34.6578 21.8429 34.6628C21.6435 34.6823 21.4422 34.6681 21.2475 34.6209C21.2206 34.613 21.1858 34.607 21.1639 34.6189C21.1227 34.6387 21.0868 34.6681 21.0593 34.7046C21.0315 34.7494 21.0613 34.8301 21.1051 34.8559C21.129 34.8709 21.1549 34.8858 21.1818 34.8918C21.3212 34.9187 21.4605 34.9426 21.589 34.9665ZM26.8975 38.4866L26.8945 38.5035C26.8288 38.5035 26.7621 38.4996 26.6964 38.5045C26.668 38.5076 26.6417 38.5204 26.6217 38.5408C26.6017 38.5611 26.5894 38.5877 26.5868 38.6161C26.585 38.6445 26.5923 38.6729 26.6077 38.6969C26.6231 38.7209 26.6458 38.7393 26.6725 38.7495C26.7075 38.7631 26.7439 38.7727 26.781 38.7784C26.9303 38.8003 27.0796 38.8212 27.229 38.8401C27.2664 38.8443 27.3042 38.8439 27.3415 38.8391C27.4042 38.8321 27.4689 38.7614 27.4679 38.7047C27.4679 38.6579 27.4211 38.5912 27.3684 38.5792C27.2121 38.5464 27.0548 38.5175 26.8975 38.4866ZM22.1276 34.2634V34.2595L21.8707 34.2605C21.852 34.2608 21.8333 34.2632 21.815 34.2674C21.7873 34.2742 21.7621 34.2889 21.7427 34.3098C21.7232 34.3307 21.7103 34.3568 21.7055 34.3849C21.6965 34.4457 21.7493 34.5144 21.815 34.5303C21.8249 34.5323 21.8339 34.5353 21.8439 34.5353C22.0141 34.5323 22.1843 34.5313 22.3546 34.5263C22.3815 34.5253 22.4084 34.5094 22.4342 34.4975C22.4605 34.4859 22.4819 34.4656 22.4948 34.44C22.5077 34.4143 22.5113 34.385 22.5049 34.357C22.494 34.3073 22.4641 34.2674 22.4113 34.2644C22.3168 34.2605 22.2222 34.2634 22.1276 34.2634ZM32.637 25.1898C32.6619 25.1818 32.7217 25.1758 32.7684 25.1499C32.8421 25.1071 32.9098 25.0534 32.9765 25.0006C33.0514 24.9427 33.1235 24.8812 33.1926 24.8163C33.2099 24.7998 33.2218 24.7783 33.2266 24.7548C33.2314 24.7313 33.2289 24.7069 33.2194 24.6849C33.2077 24.6587 33.1878 24.6369 33.1626 24.6229C33.1375 24.6089 33.1086 24.6034 33.0801 24.6072C33.0532 24.6112 33.0193 24.6122 32.9994 24.6281C32.8511 24.7476 32.7057 24.8671 32.5614 24.9906C32.5424 25.0075 32.5345 25.0394 32.5235 25.0653C32.5016 25.1151 32.5484 25.1848 32.637 25.1898ZM22.8554 34.2037C22.8723 34.2037 22.939 34.2067 23.0057 34.2027C23.0425 34.2007 23.0883 34.1967 23.1132 34.1758C23.1479 34.1463 23.1718 34.106 23.1809 34.0613C23.1849 34.0334 23.1531 33.9896 23.1252 33.9717C23.0859 33.9454 23.04 33.9306 22.9928 33.9289C22.8409 33.9314 22.6892 33.9383 22.5378 33.9498C22.5091 33.9506 22.4814 33.96 22.4581 33.9767C22.4283 33.9983 22.4057 34.0285 22.3934 34.0633C22.3815 34.1111 22.4004 34.1639 22.4472 34.1838C22.5069 34.2097 22.5726 34.2266 22.6363 34.2316C22.6921 34.2366 22.7498 34.2186 22.8554 34.2037ZM32.7913 34.4317C32.8332 34.4208 32.863 34.4188 32.8859 34.4039C33.0223 34.3192 33.1577 34.2326 33.2921 34.144C33.3166 34.1288 33.3346 34.1053 33.3429 34.0778C33.3511 34.0502 33.349 34.0207 33.3369 33.9946C33.309 33.9348 33.2583 33.9079 33.1985 33.9159C33.0192 33.9456 32.8554 34.0359 32.7346 34.1718C32.7157 34.1927 32.6938 34.2166 32.6888 34.2425C32.6818 34.2774 32.6769 34.3232 32.6938 34.3491C32.7167 34.3849 32.7605 34.4078 32.7913 34.4317ZM20.1304 25.3999C20.1772 25.4029 20.225 25.4069 20.2728 25.4079C20.2927 25.4088 20.3116 25.4079 20.3306 25.4059C20.4072 25.3989 20.4729 25.3441 20.4729 25.2894C20.4719 25.2226 20.4281 25.1848 20.3764 25.1599C20.3421 25.1427 20.305 25.1319 20.2668 25.128C20.1623 25.1175 20.0573 25.1108 19.9522 25.1081C19.9047 25.1062 19.8574 25.1151 19.8138 25.134C19.7814 25.1524 19.7574 25.1828 19.7471 25.2186C19.7403 25.2417 19.7414 25.2664 19.7502 25.2888C19.7591 25.3112 19.7752 25.33 19.7959 25.3421C19.8367 25.365 19.8835 25.382 19.9293 25.3899C19.995 25.3999 20.0627 25.3979 20.1304 25.3999ZM24.4433 27.6494L24.4453 27.6305C24.511 27.6305 24.5787 27.6345 24.6444 27.6295C24.6826 27.6293 24.7201 27.619 24.753 27.5996C24.7878 27.5727 24.8276 27.5299 24.8286 27.4921C24.8306 27.4542 24.7958 27.4004 24.7619 27.3795C24.7122 27.3512 24.6558 27.3371 24.5986 27.3387C24.475 27.3445 24.3517 27.3568 24.2293 27.3755C24.1785 27.3835 24.1526 27.4283 24.1417 27.4771C24.1307 27.5289 24.1666 27.5996 24.2213 27.6135C24.293 27.6315 24.3687 27.6374 24.4433 27.6494ZM34.0627 28.9857C34.0766 28.9828 34.1135 28.9867 34.1294 28.9698C34.2549 28.8433 34.3793 28.7159 34.4938 28.5804C34.5127 28.5585 34.4908 28.4898 34.4709 28.451C34.447 28.4052 34.3664 28.3913 34.3186 28.4191C34.1539 28.5146 34.0215 28.6571 33.9383 28.8284C33.9024 28.8971 33.9681 28.9857 34.0627 28.9857ZM31.9102 36.9391C31.9461 36.9302 31.97 36.9312 31.9819 36.9202C32.1183 36.7888 32.2388 36.6454 32.2926 36.4592C32.2985 36.4393 32.2806 36.3994 32.2617 36.3865C32.2338 36.3676 32.189 36.3486 32.1621 36.3596C31.9849 36.4313 31.8794 36.5737 31.8117 36.746C31.8061 36.7638 31.8041 36.7826 31.8058 36.8012C31.8075 36.8199 31.8129 36.838 31.8216 36.8545C31.8425 36.8913 31.8844 36.9162 31.9102 36.9391ZM33.8058 28.8892C33.8138 28.7945 33.7481 28.7348 33.6794 28.7458C33.5669 28.7627 33.3041 28.9847 33.2583 29.1013C33.2384 29.149 33.2662 29.2287 33.319 29.2427C33.3618 29.2546 33.4235 29.2646 33.4524 29.2427C33.5649 29.158 33.6704 29.0624 33.773 28.9658C33.7979 28.9429 33.8019 28.8991 33.8058 28.8892ZM26.329 25.2306C26.2822 25.2366 26.2414 25.2336 26.2085 25.2485C26.1762 25.2651 26.1498 25.2912 26.1328 25.3232C26.109 25.369 26.1269 25.4168 26.1627 25.4517C26.1826 25.4716 26.2075 25.4915 26.2334 25.4955C26.3718 25.5214 26.5112 25.5453 26.6516 25.5612C26.6844 25.5652 26.7232 25.5413 26.7561 25.5234C26.8138 25.4935 26.8268 25.3949 26.778 25.3521C26.751 25.3262 26.7182 25.3071 26.6824 25.2963C26.5629 25.2704 26.4415 25.2515 26.329 25.2306ZM19.1876 25.9386C19.2145 25.9376 19.2424 25.9366 19.2703 25.9336C19.332 25.9267 19.3808 25.8819 19.3867 25.8291C19.3927 25.7763 19.3579 25.7255 19.3001 25.6976C19.1777 25.6379 19.0433 25.6389 18.9128 25.6279C18.8753 25.626 18.8378 25.6297 18.8013 25.6389C18.778 25.6434 18.7565 25.6545 18.7394 25.671C18.7223 25.6874 18.7103 25.7084 18.7048 25.7315C18.6898 25.7843 18.7217 25.853 18.7705 25.8739C18.8043 25.8878 18.8402 25.9038 18.877 25.9087C18.9795 25.9217 19.0831 25.9286 19.1876 25.9386ZM19.3847 31.9691C19.4604 31.9642 19.4883 31.9632 19.5162 31.9602C19.5809 31.9532 19.6257 31.9104 19.6297 31.8546C19.6327 31.8018 19.6088 31.756 19.562 31.7421C19.4005 31.6951 19.2374 31.6536 19.0731 31.6176C19.0253 31.6067 18.9845 31.6435 18.9626 31.6893C18.9524 31.7108 18.9492 31.735 18.9535 31.7584C18.9578 31.7818 18.9694 31.8033 18.9865 31.8198C19.0109 31.8484 19.0415 31.8709 19.0761 31.8855C19.1916 31.9213 19.3101 31.9492 19.3847 31.9691ZM35.2156 30.6995C35.2554 30.6895 35.2913 30.6905 35.3082 30.6736C35.4177 30.5591 35.5262 30.4416 35.6288 30.3211C35.6626 30.2813 35.6308 30.1986 35.576 30.1797C35.5352 30.1648 35.4784 30.1548 35.4426 30.1727C35.2988 30.2459 35.1883 30.3713 35.134 30.5232C35.121 30.5541 35.128 30.6009 35.1429 30.6318C35.1569 30.6607 35.1927 30.6796 35.2156 30.6995ZM20.0627 33.0665C20.1563 33.0546 20.2788 33.0416 20.4002 33.0227C20.4371 33.0167 20.4819 33.0028 20.5018 32.9769C20.5293 32.9409 20.5437 32.8967 20.5426 32.8514C20.5406 32.8235 20.5008 32.7797 20.4729 32.7747C20.3037 32.7439 20.1334 32.7409 19.9751 32.8265C19.9194 32.8564 19.9025 32.9112 19.9104 32.9709C19.9184 33.0267 19.9702 33.0655 20.0627 33.0665ZM26.8536 30.5969C26.8248 30.592 26.7969 30.586 26.768 30.584C26.74 30.5802 26.7117 30.5788 26.6834 30.58C26.6058 30.584 26.547 30.6776 26.5888 30.7483C26.6162 30.7964 26.658 30.8348 26.7083 30.8578C26.8168 30.8977 26.9333 30.8927 27.0448 30.8598C27.0866 30.8479 27.1235 30.811 27.1573 30.7792C27.1971 30.7413 27.1812 30.6607 27.1294 30.6348C27.0968 30.6164 27.061 30.6042 27.0239 30.5989C26.9672 30.5929 26.9094 30.5969 26.8536 30.5969ZM36.482 21.4287C36.4999 21.4267 36.5238 21.4307 36.5367 21.4217C36.6622 21.3331 36.7727 21.2285 36.8494 21.0951C36.8622 21.0744 36.8669 21.0497 36.8625 21.0257C36.8581 21.0018 36.8449 20.9803 36.8255 20.9656C36.7986 20.9457 36.7568 20.9437 36.7209 20.9357C36.7114 20.9343 36.7018 20.9357 36.6931 20.9397C36.6217 20.9675 36.5568 21.0098 36.5027 21.064C36.4485 21.1182 36.4062 21.183 36.3784 21.2544C36.3496 21.3281 36.4073 21.4217 36.482 21.4287ZM36.1017 25.1211C35.9334 25.1699 35.798 25.2445 35.7194 25.3989C35.7154 25.4069 35.7124 25.4188 35.7164 25.4268C35.7333 25.4676 35.7443 25.5164 35.7741 25.5463C35.795 25.5682 35.8528 25.5801 35.8767 25.5662C35.9991 25.4975 36.1246 25.4278 36.2042 25.3063C36.2179 25.2865 36.2244 25.2626 36.2224 25.2386C36.2204 25.2146 36.2101 25.1921 36.1933 25.1748C36.1684 25.1499 36.1315 25.138 36.1017 25.1211ZM29.257 24.3314C29.3078 24.3264 29.3556 24.3254 29.4024 24.3175C29.4303 24.3119 29.4555 24.297 29.4739 24.2754C29.4923 24.2537 29.5029 24.2264 29.5039 24.198C29.5049 24.1442 29.479 24.1044 29.4312 24.0874C29.3059 24.0429 29.1712 24.0309 29.04 24.0526C28.9633 24.0635 28.9265 24.1751 28.9792 24.2348C29.0092 24.2707 29.0479 24.2981 29.0917 24.3145C29.1445 24.3304 29.2042 24.3264 29.257 24.3314ZM34.5575 22.9612C34.5356 22.9423 34.5057 22.8985 34.4679 22.8915C34.3056 22.8556 34.1254 23.0608 34.1195 23.1972C34.1155 23.2828 34.23 23.3764 34.2917 23.3306C34.4092 23.2519 34.5015 23.1409 34.5575 23.011C34.5605 23.002 34.5575 22.9921 34.5575 22.9612ZM26.0861 37.8553C26.0383 37.8612 25.9875 37.8593 25.9457 37.8762C25.9138 37.8891 25.875 37.925 25.872 37.9529C25.868 37.9947 25.881 38.0594 25.9098 38.0793C25.9686 38.1202 26.037 38.1453 26.1082 38.1523C26.1795 38.1593 26.2514 38.1479 26.317 38.1192C26.3628 38.1022 26.4017 38.0584 26.3877 38.0086C26.3758 37.9668 26.3439 37.915 26.3081 37.9011C26.2394 37.8742 26.1607 37.8692 26.0861 37.8553ZM35.1061 31.3607C35.1071 31.2801 35.0115 31.2064 34.9448 31.2303C34.8364 31.2673 34.7435 31.3395 34.681 31.4354C34.6719 31.4521 34.6662 31.4703 34.664 31.4892C34.6581 31.538 34.6601 31.5887 34.7069 31.6146C34.7367 31.6306 34.7805 31.6385 34.8124 31.6296C34.9203 31.5923 35.0141 31.5228 35.0812 31.4304C35.0971 31.4095 35.1001 31.3786 35.1061 31.3607ZM20.8413 29.7784C20.7348 29.7754 20.6691 29.866 20.6949 29.9347C20.7477 30.0741 20.9249 30.1628 21.0663 30.11C21.1031 30.097 21.137 30.0473 21.1499 30.0074C21.1589 29.9805 21.14 29.9278 21.1161 29.9088C21.0352 29.8456 20.9414 29.801 20.8413 29.7784ZM32.7784 33.7227C32.7356 33.6929 32.7017 33.651 32.6619 33.6441C32.5385 33.6241 32.3513 33.7377 32.3204 33.8512C32.3095 33.889 32.3284 33.9438 32.3503 33.9806C32.3631 34.0014 32.3835 34.0163 32.4072 34.022C32.4308 34.0278 32.4558 34.024 32.4767 34.0115C32.5663 33.9597 32.652 33.9 32.7326 33.8353C32.7575 33.8143 32.7605 33.7685 32.7784 33.7227ZM28.6786 30.0234C28.7224 30.0164 28.7712 30.0134 28.815 29.9985C28.8637 29.9815 28.8886 29.9377 28.8876 29.8859C28.8876 29.8361 28.8697 29.7923 28.8189 29.7714C28.7209 29.7324 28.6137 29.7227 28.5103 29.7435C28.4575 29.7545 28.4108 29.8152 28.4108 29.869C28.4108 29.9248 28.4526 29.9865 28.5053 29.9975C28.5611 30.0094 28.6178 30.0154 28.6786 30.0234ZM23.4537 31.057C23.5115 31.0431 23.5861 31.0301 23.6558 31.0042C23.6785 30.9955 23.6971 30.9786 23.7079 30.9568C23.7188 30.9351 23.7212 30.9101 23.7146 30.8867C23.7026 30.8459 23.6728 30.7921 23.6379 30.7802C23.5798 30.7589 23.5173 30.7525 23.4561 30.7616C23.3949 30.7706 23.3369 30.7948 23.2875 30.8319C23.2586 30.8519 23.2496 30.9166 23.2536 30.9584C23.2566 30.9873 23.2954 31.0192 23.3263 31.0341C23.3581 31.051 23.399 31.049 23.4537 31.057ZM23.0316 28.4042C23.0485 28.4022 23.0774 28.4002 23.1053 28.3952C23.1332 28.3895 23.1587 28.3752 23.1781 28.3543C23.1976 28.3334 23.21 28.307 23.2138 28.2787C23.2152 28.2501 23.2068 28.2218 23.19 28.1986C23.1731 28.1755 23.1489 28.1587 23.1212 28.1513C23.0389 28.133 22.9554 28.1207 22.8713 28.1144C22.8195 28.1104 22.7837 28.1443 22.7618 28.1901C22.7399 28.2379 22.7618 28.3026 22.8076 28.3425C22.8693 28.3962 22.943 28.4032 23.0316 28.4042ZM28.8438 33.1093C28.9733 33.1193 29.036 33.0814 29.0479 33.0207C29.0549 32.9883 29.0502 32.9545 29.0345 32.9253C29.0188 32.8961 28.9932 32.8734 28.9623 32.8614C28.8933 32.8327 28.822 32.8097 28.7493 32.7927C28.6855 32.7787 28.6109 32.8305 28.5959 32.8893C28.582 32.942 28.6049 33.0087 28.6567 33.0336C28.7323 33.0695 28.811 33.0964 28.8438 33.1093ZM19.1876 23.8036C19.2016 23.8006 19.2354 23.8036 19.2543 23.7887C19.2914 23.7637 19.3215 23.7298 19.3419 23.6901C19.3619 23.6433 19.332 23.6005 19.2902 23.5736C19.2098 23.5241 19.1152 23.5027 19.0214 23.5129C18.9706 23.5158 18.9367 23.5457 18.9168 23.5925C18.8949 23.6423 18.9128 23.6861 18.9447 23.72C19.0054 23.7867 19.0861 23.8076 19.1876 23.8036ZM27.446 24.1223C27.4311 24.0825 27.4291 24.0476 27.4102 24.0327C27.3693 23.9938 27.3203 23.9645 27.2668 23.9468C27.2133 23.9291 27.1565 23.9234 27.1006 23.9301C27.0769 23.9326 27.0546 23.9427 27.037 23.9588C27.0195 23.975 27.0075 23.9963 27.003 24.0197C26.9975 24.0563 27.0061 24.0937 27.0269 24.1243C27.0666 24.1707 27.1193 24.2041 27.1783 24.2201C27.2373 24.2361 27.2997 24.234 27.3574 24.2139C27.3943 24.198 27.4181 24.1522 27.446 24.1223ZM23.6508 33.6839H23.5742C23.5184 33.6859 23.4547 33.7317 23.4557 33.7845C23.456 33.8294 23.4714 33.8729 23.4995 33.908C23.5289 33.9392 23.5673 33.9607 23.6093 33.9694C23.6513 33.9781 23.695 33.9737 23.7345 33.9567C23.7683 33.9416 23.7956 33.9147 23.8111 33.8811C23.822 33.8597 23.8249 33.8352 23.8195 33.8119C23.814 33.7886 23.8005 33.7679 23.7813 33.7536C23.7385 33.7197 23.6847 33.7008 23.6508 33.6839ZM36.4461 25.2694C36.4036 25.2743 36.3643 25.2944 36.3355 25.3261C36.3068 25.3578 36.2905 25.3989 36.2898 25.4417C36.2908 25.5044 36.3555 25.5712 36.4163 25.5732C36.5059 25.5761 36.5746 25.4806 36.5626 25.372C36.5567 25.3162 36.4979 25.2655 36.4461 25.2704V25.2694Z" fill="black"/>
</svg>
