<svg width="8" height="20" viewBox="0 0 8 20" fill="none" xmlns="http://www.w3.org/2000/svg">
<path d="M0.31065 13.3575V12.3816C0.311645 12.2482 0.32061 12.1138 0.317623 11.9803C0.307667 11.349 0.354458 10.7187 0.375366 10.0883L0.385316 9.68601C0.40025 9.09352 0.420161 8.50102 0.427131 7.90752C0.433104 7.41958 0.426139 6.93164 0.41917 6.44371C0.415188 6.19476 0.397264 5.9468 0.384321 5.69885C0.378347 5.59031 0.39229 5.49372 0.473928 5.40907C0.581452 5.29655 0.579461 5.14021 0.583443 5.0018C0.596592 4.83076 0.637266 4.66296 0.703904 4.5049C0.71812 4.46463 0.740619 4.42778 0.769942 4.39674C0.799264 4.3657 0.834765 4.34114 0.874155 4.32466C0.934886 4.29478 1.00059 4.27487 1.05436 4.23703C1.09916 4.20517 1.15291 4.15737 1.16088 4.11156C1.1778 4.00501 1.24252 3.97016 1.33014 3.94626C1.58301 3.87755 1.80503 3.74909 2.01908 3.60271C2.17527 3.49213 2.33711 3.38976 2.50394 3.29601C2.67119 3.20638 2.8494 3.13369 3.02363 3.05701C3.03665 3.0506 3.05112 3.0477 3.06561 3.04858C3.0801 3.04946 3.09411 3.05409 3.10626 3.06203C3.11842 3.06997 3.1283 3.08093 3.13493 3.09384C3.14156 3.10676 3.14472 3.12118 3.1441 3.13568C3.14711 3.20244 3.13434 3.26897 3.10684 3.32987C3.07934 3.39077 3.03786 3.44432 2.98579 3.4862C2.94199 3.52205 2.88126 3.54097 2.84542 3.58279C2.80961 3.62556 2.78589 3.67713 2.77672 3.73216C2.77362 3.75364 2.77511 3.77554 2.7811 3.7964C2.78708 3.81727 2.79743 3.83663 2.81145 3.85319C2.82547 3.86976 2.84285 3.88316 2.86244 3.89251C2.88203 3.90186 2.90337 3.90694 2.92507 3.90742C2.98082 3.90842 3.04653 3.90842 3.09033 3.88153C3.22888 3.79692 3.36251 3.70449 3.49056 3.6047C3.5222 3.58205 3.54614 3.55024 3.55914 3.51355C3.57213 3.47687 3.57356 3.43709 3.56324 3.39956C3.55129 3.35077 3.5493 3.30795 3.5961 3.2731C3.72552 3.17352 3.79223 3.04009 3.80517 2.87977C3.80601 2.85132 3.81347 2.82345 3.82695 2.79839C3.84043 2.77333 3.85956 2.75175 3.88282 2.73537C3.92772 2.70014 3.96613 2.65734 3.99632 2.60891C4.14063 2.39371 4.33109 2.21341 4.55385 2.08114L5.11636 1.73659C5.39413 1.5683 5.67289 1.402 5.95066 1.23272C6.11394 1.13314 6.27721 1.03356 6.4375 0.930001C6.50919 0.883198 6.57689 0.830421 6.64558 0.77864C6.6864 0.748766 6.72921 0.735815 6.778 0.76071C6.82081 0.782617 6.86262 0.807516 6.90742 0.822453C7.01594 0.858302 7.03585 0.931992 7.03685 1.04153C7.04282 1.50955 7.06273 1.97757 7.07369 2.44559C7.07667 2.59795 7.06672 2.75031 7.06174 2.90366C7.05975 2.9405 7.04879 2.97834 7.0478 3.01618C7.02988 3.56188 6.97015 4.10459 6.98807 4.65029C6.99205 4.78472 7.00897 4.91716 7.01395 5.05159C7.01893 5.17507 7.02789 5.30053 7.01694 5.42401C6.97214 5.92191 6.99802 6.41881 6.98608 6.91571C6.97712 7.26922 6.96118 7.62273 6.95322 7.97723C6.94923 8.18635 6.94426 8.39645 6.96118 8.60458C6.98156 8.82416 6.95613 9.04558 6.88652 9.25483C6.86163 9.32653 6.8447 9.40221 6.81583 9.47291C6.74144 9.68138 6.72526 9.90619 6.76904 10.1232C6.80488 10.3592 6.86859 10.5912 6.90842 10.8252C6.93032 10.9566 6.94028 11.0921 6.9343 11.2245C6.90742 11.9126 6.8676 12.5997 6.87258 13.2898C6.87457 13.5756 6.84669 13.8634 6.85067 14.1502C6.85665 14.4549 6.88453 14.7606 6.90145 15.0663C6.90643 15.1708 6.90941 15.2754 6.91041 15.381C6.91222 15.4531 6.89672 15.5247 6.86519 15.5897C6.83366 15.6547 6.78704 15.7111 6.72921 15.7544C6.646 15.8176 6.55776 15.8739 6.46538 15.9227C6.30609 16.0093 6.13783 16.08 5.98351 16.1746C5.06757 16.7293 4.15562 17.2899 3.24067 17.8475C3.04553 17.967 2.84243 18.0756 2.64829 18.1981C2.22815 18.4629 1.80702 18.7278 1.39584 19.0076C1.19871 19.1411 0.987649 19.2556 0.810435 19.4179C0.790523 19.4358 0.760659 19.4458 0.734773 19.4557C0.649153 19.4906 0.57249 19.4557 0.559547 19.3691C0.528684 19.162 0.494832 18.9539 0.480893 18.7447C0.440074 18.1523 0.447044 17.5598 0.438084 16.9673C0.433106 16.6715 0.38532 16.3767 0.363418 16.081C0.341515 15.8052 0.316622 15.5293 0.313635 15.2525C0.30567 14.6212 0.31065 13.9888 0.31065 13.3575ZM5.54745 3.63258C5.54745 3.70229 5.54645 3.73116 5.54845 3.75905C5.55442 3.84269 5.59325 3.89348 5.65896 3.90742C5.7386 3.92435 5.81327 3.88651 5.83617 3.80087C5.85782 3.72863 5.86592 3.653 5.86006 3.57781C5.84991 3.49312 5.86228 3.40725 5.89591 3.32886C5.94668 3.19642 5.9875 3.05701 6.01538 2.9176C6.04126 2.79213 5.95962 2.68857 5.84015 2.66168C5.7625 2.64376 5.65199 2.7055 5.61416 2.80508C5.56139 2.94648 5.49568 3.08987 5.54944 3.2492C5.58007 3.34017 5.58353 3.43811 5.5594 3.53101C5.54745 3.57682 5.54845 3.62561 5.54745 3.63258ZM1.99021 8.49006H1.99419C1.99419 8.55678 1.99021 8.6245 1.99618 8.69022C2.0003 8.73729 2.01207 8.78337 2.03102 8.82665C2.04994 8.87245 2.09176 8.9093 2.14253 8.89834C2.18434 8.88838 2.23612 8.86448 2.25703 8.82963C2.28642 8.78091 2.30223 8.72521 2.30282 8.66831C2.30282 8.48907 2.27395 8.30883 2.31676 8.12859C2.32871 8.07681 2.27395 8.01706 2.22218 7.99914C2.1724 7.98221 2.09176 8.00312 2.06886 8.04892C2.03443 8.11634 2.00899 8.18799 1.9932 8.26203C1.98026 8.33572 1.99021 8.41339 1.99021 8.49006ZM3.30738 13.5338C3.31634 13.4521 3.27054 13.3904 3.21478 13.3884C3.16799 13.3874 3.11323 13.3814 3.0754 13.4023C2.94398 13.476 2.81854 13.5606 2.6911 13.6423C2.67603 13.6539 2.66349 13.6685 2.65426 13.6851C2.62838 13.7279 2.61345 13.7767 2.6473 13.8176C2.67517 13.8504 2.71699 13.8773 2.75781 13.8942C2.77971 13.9042 2.81655 13.8962 2.83945 13.8843C2.97807 13.8031 3.11419 13.7178 3.24763 13.6284C3.28148 13.6045 3.29642 13.5527 3.30738 13.5338ZM2.1943 16.8468C2.18236 16.7651 2.10271 16.7123 2.038 16.7293C1.86376 16.7785 1.7088 16.88 1.59397 17.02C1.58799 17.027 1.585 17.037 1.58102 17.0449C1.56012 17.1017 1.55812 17.1555 1.59795 17.2052C1.62881 17.2441 1.70845 17.265 1.75326 17.2341C1.89164 17.1365 2.02705 17.035 2.15946 16.9284C2.18336 16.9085 2.18733 16.8627 2.1943 16.8468ZM5.55442 12.9731C5.68782 12.9413 5.83915 12.8915 5.94369 12.754C5.94966 12.7471 5.95265 12.7381 5.95663 12.7292C5.99347 12.6595 5.94469 12.5658 5.86604 12.5569C5.83859 12.5514 5.8102 12.5527 5.7834 12.5609C5.66991 12.6087 5.5584 12.6605 5.44789 12.7142C5.42294 12.7281 5.40308 12.7496 5.39125 12.7756C5.37942 12.8016 5.37625 12.8307 5.38218 12.8586C5.39512 12.9203 5.46282 12.9721 5.55442 12.9731ZM4.05805 8.0549C4.02718 8.02802 4.00329 7.98918 3.97342 7.9852C3.91966 7.97624 3.85395 7.97325 3.80815 7.99715C3.71718 8.04883 3.63119 8.10883 3.55129 8.17639C3.52427 8.19712 3.50651 8.22766 3.50185 8.2614C3.49719 8.29514 3.50602 8.32935 3.52641 8.35663C3.56922 8.41638 3.63691 8.43927 3.70162 8.41139C3.82537 8.35835 3.93387 8.27516 4.01723 8.16942C4.03913 8.14154 4.04212 8.09971 4.05805 8.0549ZM3.26157 4.84745C3.25759 4.73991 3.14509 4.68115 3.07242 4.7409C2.97883 4.81857 2.89719 4.91118 2.81655 5.0018C2.77971 5.04362 2.79066 5.12129 2.83148 5.15714C2.87529 5.19697 2.92606 5.22087 2.98579 5.192C3.10715 5.13648 3.20238 5.03623 3.25162 4.91217C3.26158 4.88728 3.26058 4.85741 3.26157 4.84745ZM1.35104 5.61222C1.34905 5.70284 1.361 5.77553 1.4287 5.8293C1.49242 5.8781 1.60989 5.86117 1.62483 5.79246C1.64741 5.67186 1.66403 5.55023 1.67461 5.428C1.67859 5.3812 1.61587 5.32443 1.5631 5.31149C1.51034 5.29854 1.46653 5.32145 1.43467 5.3573C1.3761 5.42893 1.34628 5.5198 1.35104 5.61222ZM5.52355 5.79743C5.54147 5.79245 5.56238 5.79245 5.57732 5.78349C5.6872 5.7099 5.76758 5.59987 5.80431 5.47281C5.81426 5.44293 5.77544 5.38319 5.74259 5.36028C5.68484 5.31846 5.61316 5.32842 5.5584 5.37024C5.47587 5.43438 5.4156 5.52287 5.38616 5.62317C5.36127 5.70383 5.44092 5.80341 5.52355 5.79743ZM5.65697 9.60436C5.66393 9.5237 5.5813 9.45499 5.50464 9.47789C5.38506 9.51284 5.2804 9.58636 5.20696 9.68701C5.18505 9.71887 5.18904 9.77862 5.19999 9.82144C5.21293 9.87222 5.26371 9.89114 5.31349 9.88915C5.47179 9.88118 5.57632 9.79157 5.648 9.65714C5.65597 9.6412 5.65398 9.62029 5.65697 9.60436ZM4.82465 9.73381C4.82963 9.65514 4.74401 9.58643 4.66735 9.60037C4.55617 9.62237 4.45458 9.6784 4.37664 9.7607C4.33382 9.80451 4.32685 9.86027 4.35373 9.91703C4.36876 9.9469 4.39402 9.97038 4.42491 9.98318C4.45579 9.99597 4.49025 9.99723 4.522 9.98674C4.63026 9.95262 4.72636 9.88796 4.79877 9.80053C4.8147 9.77962 4.81867 9.74974 4.82465 9.73381ZM4.34378 16.072C4.3627 16.07 4.38659 16.074 4.39854 16.0641C4.48117 16.0003 4.56381 15.9376 4.63748 15.8649C4.65839 15.845 4.66038 15.7932 4.65241 15.7604C4.63947 15.7116 4.59666 15.6847 4.54489 15.6817C4.4783 15.6821 4.41316 15.7012 4.35685 15.7367C4.30054 15.7723 4.25532 15.8229 4.2263 15.8828C4.19444 15.9655 4.26115 16.074 4.34378 16.072ZM4.60562 4.24499C4.60562 4.1733 4.53095 4.09363 4.4742 4.09562C4.41705 4.09781 4.36109 4.11261 4.31032 4.13895C4.25955 4.16529 4.21522 4.20252 4.18051 4.24798C4.15163 4.28482 4.15661 4.36847 4.18548 4.41029C4.21734 4.45411 4.28803 4.48 4.3388 4.45411C4.41447 4.41627 4.48914 4.37445 4.55783 4.32565C4.58571 4.30574 4.59567 4.26391 4.60562 4.24499ZM4.82764 6.33317C4.97797 6.32122 5.10043 6.18679 5.09346 6.06232C5.08848 5.98465 4.99987 5.92291 4.93118 5.9498C4.84085 5.98156 4.76676 6.04779 4.72509 6.13402C4.70319 6.18082 4.69722 6.2306 4.73206 6.26745C4.76093 6.29931 4.80474 6.31824 4.82764 6.33317ZM1.82793 10.7386C1.72638 10.7406 1.65768 10.7645 1.60691 10.8132C1.5422 10.873 1.56409 11.0025 1.64275 11.0293C1.70121 11.0513 1.76582 11.0506 1.82373 11.0271C1.88164 11.0037 1.92863 10.9593 1.95536 10.9029C1.97826 10.8551 1.94939 10.7774 1.89862 10.7585C1.87273 10.7485 1.84485 10.7435 1.82793 10.7386ZM5.05065 14.5863C5.05762 14.5216 5.00485 14.4559 4.93815 14.4459C4.87443 14.4359 4.80971 14.4857 4.79677 14.5554C4.78184 14.6271 4.82266 14.6949 4.88936 14.7058C4.96901 14.7207 5.04169 14.667 5.05065 14.5863Z" fill="black"/>
</svg>
