<svg width="56" height="16" viewBox="0 0 56 16" fill="none" xmlns="http://www.w3.org/2000/svg">
<path d="M49.3219 5.18622C49.314 5.37688 49.3588 5.56604 49.4513 5.73291C49.5111 5.83349 49.6107 5.88627 49.7301 5.88328C49.787 5.88156 49.8436 5.8749 49.8993 5.86336C50.5564 5.7349 51.1538 5.47202 51.7213 5.12349C52.4081 4.68954 53.0342 4.16613 53.5831 3.56706C54.1017 3.00065 54.5496 2.37336 54.9171 1.69895C55.0565 1.43407 55.1859 1.16222 55.2855 0.881405C55.2954 0.855514 55.3054 0.820662 55.2954 0.797759C55.2736 0.745892 55.247 0.69621 55.2158 0.649383C55.2158 0.646396 55.1859 0.653367 55.176 0.662329C55.1461 0.717098 55.1063 0.773856 55.0764 0.831612C54.728 1.46394 54.3198 2.04649 53.8021 2.55135C53.4436 2.89988 53.0454 3.19363 52.5875 3.40375C52.2888 3.53818 51.9801 3.62781 51.6615 3.65569C51.4823 3.67063 51.2932 3.68854 51.114 3.69253C51.0045 3.69552 50.8949 3.67958 50.7854 3.66166C50.6425 3.63663 50.4956 3.64653 50.3574 3.69054C50.1383 3.76124 49.9491 3.88073 49.7898 4.05599C49.5807 4.30295 49.4315 4.58675 49.3518 4.90441C49.3319 4.99503 49.3319 5.09162 49.3219 5.18622ZM28.7033 6.90197C28.5839 6.895 28.5142 6.88903 28.4445 6.88604C28.3964 6.88125 28.348 6.88786 28.303 6.90534C28.258 6.92281 28.2178 6.95066 28.1856 6.98661C28.1259 7.05433 28.0562 7.07425 27.9766 7.0852C27.8571 7.10213 27.7275 7.13399 27.6081 7.15988C27.494 7.18155 27.3877 7.2327 27.2995 7.30826C27.2489 7.35146 27.1864 7.3785 27.1202 7.38593C27.0107 7.40982 26.8913 7.43871 26.7818 7.47555C26.6026 7.5343 26.5528 7.68168 26.6524 7.84001C26.722 7.95453 26.8217 8.02423 26.961 8.02025C27.0407 8.01826 27.1203 8.0322 27.19 8.07303C27.2597 8.11485 27.3393 8.12879 27.419 8.09991C27.4588 8.08597 27.5086 8.08597 27.5484 8.08597C27.8272 8.08796 28.1059 8.07601 28.3847 8.04415C28.534 8.02622 28.6834 8.04514 28.8427 8.05211C28.9423 8.05709 29.0418 8.07103 29.1413 8.078C29.3604 8.09294 29.5694 8.03419 29.7586 7.94855C29.8168 7.92503 29.8697 7.89009 29.9141 7.84579C29.9586 7.80149 29.9937 7.74874 30.0174 7.69064C30.0871 7.52235 30.0274 7.36701 29.8681 7.28336C29.8076 7.25587 29.7442 7.23548 29.679 7.22261C29.579 7.1976 29.4845 7.1544 29.4002 7.09515C29.2301 6.955 29.0126 6.88581 28.7929 6.90197C28.7431 6.90496 28.7033 6.90197 28.7033 6.90197ZM15.462 9.84852C15.5914 9.82363 15.7308 9.81567 15.8602 9.76986C16.0693 9.69717 16.2684 9.60257 16.4575 9.50896C16.5571 9.46515 16.6268 9.39444 16.6666 9.29586C16.7164 9.18632 16.6965 9.08475 16.5969 9.03197C16.2783 8.87464 15.9598 8.8129 15.6213 8.94136C15.54 8.97393 15.468 9.0263 15.4121 9.09372C15.3325 9.19827 15.2529 9.29785 15.1434 9.37154C15.0737 9.41237 15.0439 9.48008 15.024 9.55278C15.004 9.6643 15.0439 9.76488 15.1534 9.79774C15.2529 9.82662 15.3524 9.83159 15.462 9.84852ZM33.6813 9.53186C33.8406 9.52688 33.9799 9.46215 34.0993 9.39345C34.1889 9.34963 34.2188 9.263 34.2088 9.16939C34.2088 9.06882 34.1392 9.01405 34.0496 8.98219C33.9878 8.9579 33.9246 8.93728 33.8604 8.92044C33.7721 8.89785 33.6789 8.90582 33.5957 8.94308C33.5125 8.98033 33.4444 9.04466 33.4025 9.12558C33.3228 9.28092 33.3826 9.43527 33.5419 9.50099C33.5916 9.51892 33.6414 9.5229 33.6813 9.53186ZM25.7762 9.35561C25.8658 9.33868 25.9754 9.32773 26.065 9.29885C26.1845 9.26499 26.2441 9.17935 26.2441 9.0738C26.2444 9.01442 26.2251 8.95663 26.1891 8.90944C26.1531 8.86224 26.1024 8.82829 26.0451 8.8129C25.9281 8.78025 25.8048 8.77785 25.6867 8.80593C25.5373 8.83879 25.4477 8.94335 25.378 9.06882C25.368 9.10467 25.368 9.15446 25.368 9.19628C25.368 9.24209 25.3979 9.28192 25.4477 9.29188C25.5473 9.31777 25.6568 9.3347 25.7762 9.35561ZM28.992 9.08774C29.1015 9.0718 29.2309 9.05588 29.3504 9.03596C29.44 9.02202 29.4898 8.96028 29.5097 8.87663C29.5296 8.79498 29.5297 8.71432 29.46 8.65357C29.3898 8.58967 29.3039 8.54567 29.2111 8.52611C29.1016 8.50421 29.0119 8.54204 28.982 8.6466C28.967 8.73324 28.9252 8.813 28.8625 8.87464C28.8426 8.89456 28.8427 8.92642 28.8328 8.95431C28.8228 9.027 28.8626 9.08375 28.9423 9.08774H28.992ZM34.8261 9.03596C34.836 9.06583 34.8361 9.11761 34.856 9.16342C34.8958 9.24806 35.0153 9.263 35.085 9.19528C35.1049 9.17437 35.1248 9.14948 35.1248 9.12359C35.1597 9.01887 35.1597 8.90568 35.1248 8.80095C35.1149 8.78801 35.1049 8.77506 35.1049 8.76311C35.0452 8.67947 34.9357 8.67747 34.8859 8.76212C34.8677 8.79348 34.8542 8.82737 34.846 8.86269C34.8361 8.91248 34.836 8.96426 34.8261 9.03596ZM36.3793 8.25127C36.3693 8.11684 36.2897 8.05112 36.1603 8.08597C36.1185 8.09964 36.0784 8.11801 36.0408 8.14074C36.0212 8.15619 36.0056 8.17607 35.9952 8.19875C35.9848 8.22144 35.9799 8.24626 35.981 8.27119C35.981 8.32496 36.0208 8.37077 36.0706 8.37873C36.1303 8.3877 36.1801 8.39267 36.2399 8.39865C36.3195 8.40562 36.3693 8.36778 36.3693 8.2931C36.3771 8.28061 36.3806 8.26593 36.3793 8.25127ZM0.289199 15.0127C0.338978 15.0147 0.378758 14.9798 0.368802 14.935C0.368802 14.8892 0.329023 14.8534 0.289199 14.8594C0.249376 14.8653 0.219561 14.8892 0.219561 14.9281C0.209605 14.9739 0.23942 15.0107 0.289199 15.0127Z" fill="black"/>
</svg>
